<?xml version="1.0" encoding="utf-8" standalone="no"?>
<!DOCTYPE svg PUBLIC "-//W3C//DTD SVG 1.1//EN"
  "http://www.w3.org/Graphics/SVG/1.1/DTD/svg11.dtd">
<svg xmlns:xlink="http://www.w3.org/1999/xlink" width="864pt" height="864pt" viewBox="0 0 864 864" xmlns="http://www.w3.org/2000/svg" version="1.1">
 <metadata>
  <rdf:RDF xmlns:dc="http://purl.org/dc/elements/1.1/" xmlns:cc="http://creativecommons.org/ns#" xmlns:rdf="http://www.w3.org/1999/02/22-rdf-syntax-ns#">
   <cc:Work>
    <dc:type rdf:resource="http://purl.org/dc/dcmitype/StillImage"/>
    <dc:date>2023-12-09T20:09:41.314665</dc:date>
    <dc:format>image/svg+xml</dc:format>
    <dc:creator>
     <cc:Agent>
      <dc:title>Matplotlib v3.7.1, https://matplotlib.org/</dc:title>
     </cc:Agent>
    </dc:creator>
   </cc:Work>
  </rdf:RDF>
 </metadata>
 <defs>
  <style type="text/css">*{stroke-linejoin: round; stroke-linecap: butt}</style>
 </defs>
 <g id="figure_1">
  <g id="patch_1">
   <path d="M 0 864 
L 864 864 
L 864 0 
L 0 0 
z
" style="fill: #ffffff"/>
  </g>
  <g id="axes_1">
   <g id="patch_2">
    <path d="M 108 768.96 
L 777.6 768.96 
L 777.6 103.68 
L 108 103.68 
z
" style="fill: #ffffff"/>
   </g>
   <g id="patch_3">
    <path d="M 116.37 768.96 
L 183.33 768.96 
L 183.33 135.36 
L 116.37 135.36 
z
" clip-path="url(#p9c2ee352a7)" style="fill: #3274a1"/>
   </g>
   <g id="patch_4">
    <path d="M 200.07 768.96 
L 267.03 768.96 
L 267.03 335.444211 
L 200.07 335.444211 
z
" clip-path="url(#p9c2ee352a7)" style="fill: #e1812c"/>
   </g>
   <g id="patch_5">
    <path d="M 283.77 768.96 
L 350.73 768.96 
L 350.73 548.867368 
L 283.77 548.867368 
z
" clip-path="url(#p9c2ee352a7)" style="fill: #3a923a"/>
   </g>
   <g id="patch_6">
    <path d="M 367.47 768.96 
L 434.43 768.96 
L 434.43 635.570526 
L 367.47 635.570526 
z
" clip-path="url(#p9c2ee352a7)" style="fill: #c03d3e"/>
   </g>
   <g id="patch_7">
    <path d="M 451.17 768.96 
L 518.13 768.96 
L 518.13 635.570526 
L 451.17 635.570526 
z
" clip-path="url(#p9c2ee352a7)" style="fill: #9372b2"/>
   </g>
   <g id="patch_8">
    <path d="M 534.87 768.96 
L 601.83 768.96 
L 601.83 675.587368 
L 534.87 675.587368 
z
" clip-path="url(#p9c2ee352a7)" style="fill: #845b53"/>
   </g>
   <g id="patch_9">
    <path d="M 618.57 768.96 
L 685.53 768.96 
L 685.53 682.256842 
L 618.57 682.256842 
z
" clip-path="url(#p9c2ee352a7)" style="fill: #d684bd"/>
   </g>
   <g id="patch_10">
    <path d="M 702.27 768.96 
L 769.23 768.96 
L 769.23 682.256842 
L 702.27 682.256842 
z
" clip-path="url(#p9c2ee352a7)" style="fill: #7f7f7f"/>
   </g>
   <g id="matplotlib.axis_1">
    <g id="xtick_1">
     <g id="line2d_1">
      <defs>
       <path id="m7c6220bfc6" d="M 0 0 
L 0 3.5 
" style="stroke: #000000; stroke-width: 0.8"/>
      </defs>
      <g>
       <use xlink:href="#m7c6220bfc6" x="149.85" y="768.96" style="stroke: #000000; stroke-width: 0.8"/>
      </g>
     </g>
     <g id="text_1">
      <!-- UT -->
      <g transform="translate(143.136719 783.558437) scale(0.1 -0.1)">
       <defs>
        <path id="DejaVuSans-55" d="M 556 4666 
L 1191 4666 
L 1191 1831 
Q 1191 1081 1462 751 
Q 1734 422 2344 422 
Q 2950 422 3222 751 
Q 3494 1081 3494 1831 
L 3494 4666 
L 4128 4666 
L 4128 1753 
Q 4128 841 3676 375 
Q 3225 -91 2344 -91 
Q 1459 -91 1007 375 
Q 556 841 556 1753 
L 556 4666 
z
" transform="scale(0.015625)"/>
        <path id="DejaVuSans-54" d="M -19 4666 
L 3928 4666 
L 3928 4134 
L 2272 4134 
L 2272 0 
L 1638 0 
L 1638 4134 
L -19 4134 
L -19 4666 
z
" transform="scale(0.015625)"/>
       </defs>
       <use xlink:href="#DejaVuSans-55"/>
       <use xlink:href="#DejaVuSans-54" x="73.193359"/>
      </g>
     </g>
    </g>
    <g id="xtick_2">
     <g id="line2d_2">
      <g>
       <use xlink:href="#m7c6220bfc6" x="233.55" y="768.96" style="stroke: #000000; stroke-width: 0.8"/>
      </g>
     </g>
     <g id="text_2">
      <!-- UW -->
      <g transform="translate(224.946875 783.558437) scale(0.1 -0.1)">
       <defs>
        <path id="DejaVuSans-57" d="M 213 4666 
L 850 4666 
L 1831 722 
L 2809 4666 
L 3519 4666 
L 4500 722 
L 5478 4666 
L 6119 4666 
L 4947 0 
L 4153 0 
L 3169 4050 
L 2175 0 
L 1381 0 
L 213 4666 
z
" transform="scale(0.015625)"/>
       </defs>
       <use xlink:href="#DejaVuSans-55"/>
       <use xlink:href="#DejaVuSans-57" x="73.193359"/>
      </g>
     </g>
    </g>
    <g id="xtick_3">
     <g id="line2d_3">
      <g>
       <use xlink:href="#m7c6220bfc6" x="317.25" y="768.96" style="stroke: #000000; stroke-width: 0.8"/>
      </g>
     </g>
     <g id="text_3">
      <!-- UBC -->
      <g transform="translate(306.75625 783.558437) scale(0.1 -0.1)">
       <defs>
        <path id="DejaVuSans-42" d="M 1259 2228 
L 1259 519 
L 2272 519 
Q 2781 519 3026 730 
Q 3272 941 3272 1375 
Q 3272 1813 3026 2020 
Q 2781 2228 2272 2228 
L 1259 2228 
z
M 1259 4147 
L 1259 2741 
L 2194 2741 
Q 2656 2741 2882 2914 
Q 3109 3088 3109 3444 
Q 3109 3797 2882 3972 
Q 2656 4147 2194 4147 
L 1259 4147 
z
M 628 4666 
L 2241 4666 
Q 2963 4666 3353 4366 
Q 3744 4066 3744 3513 
Q 3744 3084 3544 2831 
Q 3344 2578 2956 2516 
Q 3422 2416 3680 2098 
Q 3938 1781 3938 1306 
Q 3938 681 3513 340 
Q 3088 0 2303 0 
L 628 0 
L 628 4666 
z
" transform="scale(0.015625)"/>
        <path id="DejaVuSans-43" d="M 4122 4306 
L 4122 3641 
Q 3803 3938 3442 4084 
Q 3081 4231 2675 4231 
Q 1875 4231 1450 3742 
Q 1025 3253 1025 2328 
Q 1025 1406 1450 917 
Q 1875 428 2675 428 
Q 3081 428 3442 575 
Q 3803 722 4122 1019 
L 4122 359 
Q 3791 134 3420 21 
Q 3050 -91 2638 -91 
Q 1578 -91 968 557 
Q 359 1206 359 2328 
Q 359 3453 968 4101 
Q 1578 4750 2638 4750 
Q 3056 4750 3426 4639 
Q 3797 4528 4122 4306 
z
" transform="scale(0.015625)"/>
       </defs>
       <use xlink:href="#DejaVuSans-55"/>
       <use xlink:href="#DejaVuSans-42" x="73.193359"/>
       <use xlink:href="#DejaVuSans-43" x="140.046875"/>
      </g>
     </g>
    </g>
    <g id="xtick_4">
     <g id="line2d_4">
      <g>
       <use xlink:href="#m7c6220bfc6" x="400.95" y="768.96" style="stroke: #000000; stroke-width: 0.8"/>
      </g>
     </g>
     <g id="text_4">
      <!-- MU -->
      <g transform="translate(392.976563 783.558437) scale(0.1 -0.1)">
       <defs>
        <path id="DejaVuSans-4d" d="M 628 4666 
L 1569 4666 
L 2759 1491 
L 3956 4666 
L 4897 4666 
L 4897 0 
L 4281 0 
L 4281 4097 
L 3078 897 
L 2444 897 
L 1241 4097 
L 1241 0 
L 628 0 
L 628 4666 
z
" transform="scale(0.015625)"/>
       </defs>
       <use xlink:href="#DejaVuSans-4d"/>
       <use xlink:href="#DejaVuSans-55" x="86.279297"/>
      </g>
     </g>
    </g>
    <g id="xtick_5">
     <g id="line2d_5">
      <g>
       <use xlink:href="#m7c6220bfc6" x="484.65" y="768.96" style="stroke: #000000; stroke-width: 0.8"/>
      </g>
     </g>
     <g id="text_5">
      <!-- SFU -->
      <g transform="translate(474.940625 783.558437) scale(0.1 -0.1)">
       <defs>
        <path id="DejaVuSans-53" d="M 3425 4513 
L 3425 3897 
Q 3066 4069 2747 4153 
Q 2428 4238 2131 4238 
Q 1616 4238 1336 4038 
Q 1056 3838 1056 3469 
Q 1056 3159 1242 3001 
Q 1428 2844 1947 2747 
L 2328 2669 
Q 3034 2534 3370 2195 
Q 3706 1856 3706 1288 
Q 3706 609 3251 259 
Q 2797 -91 1919 -91 
Q 1588 -91 1214 -16 
Q 841 59 441 206 
L 441 856 
Q 825 641 1194 531 
Q 1563 422 1919 422 
Q 2459 422 2753 634 
Q 3047 847 3047 1241 
Q 3047 1584 2836 1778 
Q 2625 1972 2144 2069 
L 1759 2144 
Q 1053 2284 737 2584 
Q 422 2884 422 3419 
Q 422 4038 858 4394 
Q 1294 4750 2059 4750 
Q 2388 4750 2728 4690 
Q 3069 4631 3425 4513 
z
" transform="scale(0.015625)"/>
        <path id="DejaVuSans-46" d="M 628 4666 
L 3309 4666 
L 3309 4134 
L 1259 4134 
L 1259 2759 
L 3109 2759 
L 3109 2228 
L 1259 2228 
L 1259 0 
L 628 0 
L 628 4666 
z
" transform="scale(0.015625)"/>
       </defs>
       <use xlink:href="#DejaVuSans-53"/>
       <use xlink:href="#DejaVuSans-46" x="63.476562"/>
       <use xlink:href="#DejaVuSans-55" x="120.996094"/>
      </g>
     </g>
    </g>
    <g id="xtick_6">
     <g id="line2d_6">
      <g>
       <use xlink:href="#m7c6220bfc6" x="568.35" y="768.96" style="stroke: #000000; stroke-width: 0.8"/>
      </g>
     </g>
     <g id="text_6">
      <!-- CU -->
      <g transform="translate(561.199219 783.558437) scale(0.1 -0.1)">
       <use xlink:href="#DejaVuSans-43"/>
       <use xlink:href="#DejaVuSans-55" x="69.824219"/>
      </g>
     </g>
    </g>
    <g id="xtick_7">
     <g id="line2d_7">
      <g>
       <use xlink:href="#m7c6220bfc6" x="652.05" y="768.96" style="stroke: #000000; stroke-width: 0.8"/>
      </g>
     </g>
     <g id="text_7">
      <!-- UA -->
      <g transform="translate(644.970313 783.558437) scale(0.1 -0.1)">
       <defs>
        <path id="DejaVuSans-41" d="M 2188 4044 
L 1331 1722 
L 3047 1722 
L 2188 4044 
z
M 1831 4666 
L 2547 4666 
L 4325 0 
L 3669 0 
L 3244 1197 
L 1141 1197 
L 716 0 
L 50 0 
L 1831 4666 
z
" transform="scale(0.015625)"/>
       </defs>
       <use xlink:href="#DejaVuSans-55"/>
       <use xlink:href="#DejaVuSans-41" x="73.193359"/>
      </g>
     </g>
    </g>
    <g id="xtick_8">
     <g id="line2d_8">
      <g>
       <use xlink:href="#m7c6220bfc6" x="735.75" y="768.96" style="stroke: #000000; stroke-width: 0.8"/>
      </g>
     </g>
     <g id="text_8">
      <!-- UM -->
      <g transform="translate(727.776562 783.558437) scale(0.1 -0.1)">
       <use xlink:href="#DejaVuSans-55"/>
       <use xlink:href="#DejaVuSans-4d" x="73.193359"/>
      </g>
     </g>
    </g>
    <g id="text_9">
     <!-- abbr -->
     <g transform="translate(431.332031 797.236562) scale(0.1 -0.1)">
      <defs>
       <path id="DejaVuSans-61" d="M 2194 1759 
Q 1497 1759 1228 1600 
Q 959 1441 959 1056 
Q 959 750 1161 570 
Q 1363 391 1709 391 
Q 2188 391 2477 730 
Q 2766 1069 2766 1631 
L 2766 1759 
L 2194 1759 
z
M 3341 1997 
L 3341 0 
L 2766 0 
L 2766 531 
Q 2569 213 2275 61 
Q 1981 -91 1556 -91 
Q 1019 -91 701 211 
Q 384 513 384 1019 
Q 384 1609 779 1909 
Q 1175 2209 1959 2209 
L 2766 2209 
L 2766 2266 
Q 2766 2663 2505 2880 
Q 2244 3097 1772 3097 
Q 1472 3097 1187 3025 
Q 903 2953 641 2809 
L 641 3341 
Q 956 3463 1253 3523 
Q 1550 3584 1831 3584 
Q 2591 3584 2966 3190 
Q 3341 2797 3341 1997 
z
" transform="scale(0.015625)"/>
       <path id="DejaVuSans-62" d="M 3116 1747 
Q 3116 2381 2855 2742 
Q 2594 3103 2138 3103 
Q 1681 3103 1420 2742 
Q 1159 2381 1159 1747 
Q 1159 1113 1420 752 
Q 1681 391 2138 391 
Q 2594 391 2855 752 
Q 3116 1113 3116 1747 
z
M 1159 2969 
Q 1341 3281 1617 3432 
Q 1894 3584 2278 3584 
Q 2916 3584 3314 3078 
Q 3713 2572 3713 1747 
Q 3713 922 3314 415 
Q 2916 -91 2278 -91 
Q 1894 -91 1617 61 
Q 1341 213 1159 525 
L 1159 0 
L 581 0 
L 581 4863 
L 1159 4863 
L 1159 2969 
z
" transform="scale(0.015625)"/>
       <path id="DejaVuSans-72" d="M 2631 2963 
Q 2534 3019 2420 3045 
Q 2306 3072 2169 3072 
Q 1681 3072 1420 2755 
Q 1159 2438 1159 1844 
L 1159 0 
L 581 0 
L 581 3500 
L 1159 3500 
L 1159 2956 
Q 1341 3275 1631 3429 
Q 1922 3584 2338 3584 
Q 2397 3584 2469 3576 
Q 2541 3569 2628 3553 
L 2631 2963 
z
" transform="scale(0.015625)"/>
      </defs>
      <use xlink:href="#DejaVuSans-61"/>
      <use xlink:href="#DejaVuSans-62" x="61.279297"/>
      <use xlink:href="#DejaVuSans-62" x="124.755859"/>
      <use xlink:href="#DejaVuSans-72" x="188.232422"/>
     </g>
    </g>
   </g>
   <g id="matplotlib.axis_2">
    <g id="ytick_1">
     <g id="line2d_9">
      <defs>
       <path id="mb5e1a527bd" d="M 0 0 
L -3.5 0 
" style="stroke: #000000; stroke-width: 0.8"/>
      </defs>
      <g>
       <use xlink:href="#mb5e1a527bd" x="108" y="768.96" style="stroke: #000000; stroke-width: 0.8"/>
      </g>
     </g>
     <g id="text_10">
      <!-- 0 -->
      <g transform="translate(94.6375 772.759219) scale(0.1 -0.1)">
       <defs>
        <path id="DejaVuSans-30" d="M 2034 4250 
Q 1547 4250 1301 3770 
Q 1056 3291 1056 2328 
Q 1056 1369 1301 889 
Q 1547 409 2034 409 
Q 2525 409 2770 889 
Q 3016 1369 3016 2328 
Q 3016 3291 2770 3770 
Q 2525 4250 2034 4250 
z
M 2034 4750 
Q 2819 4750 3233 4129 
Q 3647 3509 3647 2328 
Q 3647 1150 3233 529 
Q 2819 -91 2034 -91 
Q 1250 -91 836 529 
Q 422 1150 422 2328 
Q 422 3509 836 4129 
Q 1250 4750 2034 4750 
z
" transform="scale(0.015625)"/>
       </defs>
       <use xlink:href="#DejaVuSans-30"/>
      </g>
     </g>
    </g>
    <g id="ytick_2">
     <g id="line2d_10">
      <g>
       <use xlink:href="#mb5e1a527bd" x="108" y="635.570526" style="stroke: #000000; stroke-width: 0.8"/>
      </g>
     </g>
     <g id="text_11">
      <!-- 2 -->
      <g transform="translate(94.6375 639.369745) scale(0.1 -0.1)">
       <defs>
        <path id="DejaVuSans-32" d="M 1228 531 
L 3431 531 
L 3431 0 
L 469 0 
L 469 531 
Q 828 903 1448 1529 
Q 2069 2156 2228 2338 
Q 2531 2678 2651 2914 
Q 2772 3150 2772 3378 
Q 2772 3750 2511 3984 
Q 2250 4219 1831 4219 
Q 1534 4219 1204 4116 
Q 875 4013 500 3803 
L 500 4441 
Q 881 4594 1212 4672 
Q 1544 4750 1819 4750 
Q 2544 4750 2975 4387 
Q 3406 4025 3406 3419 
Q 3406 3131 3298 2873 
Q 3191 2616 2906 2266 
Q 2828 2175 2409 1742 
Q 1991 1309 1228 531 
z
" transform="scale(0.015625)"/>
       </defs>
       <use xlink:href="#DejaVuSans-32"/>
      </g>
     </g>
    </g>
    <g id="ytick_3">
     <g id="line2d_11">
      <g>
       <use xlink:href="#mb5e1a527bd" x="108" y="502.181053" style="stroke: #000000; stroke-width: 0.8"/>
      </g>
     </g>
     <g id="text_12">
      <!-- 4 -->
      <g transform="translate(94.6375 505.980271) scale(0.1 -0.1)">
       <defs>
        <path id="DejaVuSans-34" d="M 2419 4116 
L 825 1625 
L 2419 1625 
L 2419 4116 
z
M 2253 4666 
L 3047 4666 
L 3047 1625 
L 3713 1625 
L 3713 1100 
L 3047 1100 
L 3047 0 
L 2419 0 
L 2419 1100 
L 313 1100 
L 313 1709 
L 2253 4666 
z
" transform="scale(0.015625)"/>
       </defs>
       <use xlink:href="#DejaVuSans-34"/>
      </g>
     </g>
    </g>
    <g id="ytick_4">
     <g id="line2d_12">
      <g>
       <use xlink:href="#mb5e1a527bd" x="108" y="368.791579" style="stroke: #000000; stroke-width: 0.8"/>
      </g>
     </g>
     <g id="text_13">
      <!-- 6 -->
      <g transform="translate(94.6375 372.590798) scale(0.1 -0.1)">
       <defs>
        <path id="DejaVuSans-36" d="M 2113 2584 
Q 1688 2584 1439 2293 
Q 1191 2003 1191 1497 
Q 1191 994 1439 701 
Q 1688 409 2113 409 
Q 2538 409 2786 701 
Q 3034 994 3034 1497 
Q 3034 2003 2786 2293 
Q 2538 2584 2113 2584 
z
M 3366 4563 
L 3366 3988 
Q 3128 4100 2886 4159 
Q 2644 4219 2406 4219 
Q 1781 4219 1451 3797 
Q 1122 3375 1075 2522 
Q 1259 2794 1537 2939 
Q 1816 3084 2150 3084 
Q 2853 3084 3261 2657 
Q 3669 2231 3669 1497 
Q 3669 778 3244 343 
Q 2819 -91 2113 -91 
Q 1303 -91 875 529 
Q 447 1150 447 2328 
Q 447 3434 972 4092 
Q 1497 4750 2381 4750 
Q 2619 4750 2861 4703 
Q 3103 4656 3366 4563 
z
" transform="scale(0.015625)"/>
       </defs>
       <use xlink:href="#DejaVuSans-36"/>
      </g>
     </g>
    </g>
    <g id="ytick_5">
     <g id="line2d_13">
      <g>
       <use xlink:href="#mb5e1a527bd" x="108" y="235.402105" style="stroke: #000000; stroke-width: 0.8"/>
      </g>
     </g>
     <g id="text_14">
      <!-- 8 -->
      <g transform="translate(94.6375 239.201324) scale(0.1 -0.1)">
       <defs>
        <path id="DejaVuSans-38" d="M 2034 2216 
Q 1584 2216 1326 1975 
Q 1069 1734 1069 1313 
Q 1069 891 1326 650 
Q 1584 409 2034 409 
Q 2484 409 2743 651 
Q 3003 894 3003 1313 
Q 3003 1734 2745 1975 
Q 2488 2216 2034 2216 
z
M 1403 2484 
Q 997 2584 770 2862 
Q 544 3141 544 3541 
Q 544 4100 942 4425 
Q 1341 4750 2034 4750 
Q 2731 4750 3128 4425 
Q 3525 4100 3525 3541 
Q 3525 3141 3298 2862 
Q 3072 2584 2669 2484 
Q 3125 2378 3379 2068 
Q 3634 1759 3634 1313 
Q 3634 634 3220 271 
Q 2806 -91 2034 -91 
Q 1263 -91 848 271 
Q 434 634 434 1313 
Q 434 1759 690 2068 
Q 947 2378 1403 2484 
z
M 1172 3481 
Q 1172 3119 1398 2916 
Q 1625 2713 2034 2713 
Q 2441 2713 2670 2916 
Q 2900 3119 2900 3481 
Q 2900 3844 2670 4047 
Q 2441 4250 2034 4250 
Q 1625 4250 1398 4047 
Q 1172 3844 1172 3481 
z
" transform="scale(0.015625)"/>
       </defs>
       <use xlink:href="#DejaVuSans-38"/>
      </g>
     </g>
    </g>
    <g id="text_15">
     <!-- Publication Count -->
     <g transform="translate(88.557812 480.196562) rotate(-90) scale(0.1 -0.1)">
      <defs>
       <path id="DejaVuSans-50" d="M 1259 4147 
L 1259 2394 
L 2053 2394 
Q 2494 2394 2734 2622 
Q 2975 2850 2975 3272 
Q 2975 3691 2734 3919 
Q 2494 4147 2053 4147 
L 1259 4147 
z
M 628 4666 
L 2053 4666 
Q 2838 4666 3239 4311 
Q 3641 3956 3641 3272 
Q 3641 2581 3239 2228 
Q 2838 1875 2053 1875 
L 1259 1875 
L 1259 0 
L 628 0 
L 628 4666 
z
" transform="scale(0.015625)"/>
       <path id="DejaVuSans-75" d="M 544 1381 
L 544 3500 
L 1119 3500 
L 1119 1403 
Q 1119 906 1312 657 
Q 1506 409 1894 409 
Q 2359 409 2629 706 
Q 2900 1003 2900 1516 
L 2900 3500 
L 3475 3500 
L 3475 0 
L 2900 0 
L 2900 538 
Q 2691 219 2414 64 
Q 2138 -91 1772 -91 
Q 1169 -91 856 284 
Q 544 659 544 1381 
z
M 1991 3584 
L 1991 3584 
z
" transform="scale(0.015625)"/>
       <path id="DejaVuSans-6c" d="M 603 4863 
L 1178 4863 
L 1178 0 
L 603 0 
L 603 4863 
z
" transform="scale(0.015625)"/>
       <path id="DejaVuSans-69" d="M 603 3500 
L 1178 3500 
L 1178 0 
L 603 0 
L 603 3500 
z
M 603 4863 
L 1178 4863 
L 1178 4134 
L 603 4134 
L 603 4863 
z
" transform="scale(0.015625)"/>
       <path id="DejaVuSans-63" d="M 3122 3366 
L 3122 2828 
Q 2878 2963 2633 3030 
Q 2388 3097 2138 3097 
Q 1578 3097 1268 2742 
Q 959 2388 959 1747 
Q 959 1106 1268 751 
Q 1578 397 2138 397 
Q 2388 397 2633 464 
Q 2878 531 3122 666 
L 3122 134 
Q 2881 22 2623 -34 
Q 2366 -91 2075 -91 
Q 1284 -91 818 406 
Q 353 903 353 1747 
Q 353 2603 823 3093 
Q 1294 3584 2113 3584 
Q 2378 3584 2631 3529 
Q 2884 3475 3122 3366 
z
" transform="scale(0.015625)"/>
       <path id="DejaVuSans-74" d="M 1172 4494 
L 1172 3500 
L 2356 3500 
L 2356 3053 
L 1172 3053 
L 1172 1153 
Q 1172 725 1289 603 
Q 1406 481 1766 481 
L 2356 481 
L 2356 0 
L 1766 0 
Q 1100 0 847 248 
Q 594 497 594 1153 
L 594 3053 
L 172 3053 
L 172 3500 
L 594 3500 
L 594 4494 
L 1172 4494 
z
" transform="scale(0.015625)"/>
       <path id="DejaVuSans-6f" d="M 1959 3097 
Q 1497 3097 1228 2736 
Q 959 2375 959 1747 
Q 959 1119 1226 758 
Q 1494 397 1959 397 
Q 2419 397 2687 759 
Q 2956 1122 2956 1747 
Q 2956 2369 2687 2733 
Q 2419 3097 1959 3097 
z
M 1959 3584 
Q 2709 3584 3137 3096 
Q 3566 2609 3566 1747 
Q 3566 888 3137 398 
Q 2709 -91 1959 -91 
Q 1206 -91 779 398 
Q 353 888 353 1747 
Q 353 2609 779 3096 
Q 1206 3584 1959 3584 
z
" transform="scale(0.015625)"/>
       <path id="DejaVuSans-6e" d="M 3513 2113 
L 3513 0 
L 2938 0 
L 2938 2094 
Q 2938 2591 2744 2837 
Q 2550 3084 2163 3084 
Q 1697 3084 1428 2787 
Q 1159 2491 1159 1978 
L 1159 0 
L 581 0 
L 581 3500 
L 1159 3500 
L 1159 2956 
Q 1366 3272 1645 3428 
Q 1925 3584 2291 3584 
Q 2894 3584 3203 3211 
Q 3513 2838 3513 2113 
z
" transform="scale(0.015625)"/>
       <path id="DejaVuSans-20" transform="scale(0.015625)"/>
      </defs>
      <use xlink:href="#DejaVuSans-50"/>
      <use xlink:href="#DejaVuSans-75" x="58.552734"/>
      <use xlink:href="#DejaVuSans-62" x="121.931641"/>
      <use xlink:href="#DejaVuSans-6c" x="185.408203"/>
      <use xlink:href="#DejaVuSans-69" x="213.191406"/>
      <use xlink:href="#DejaVuSans-63" x="240.974609"/>
      <use xlink:href="#DejaVuSans-61" x="295.955078"/>
      <use xlink:href="#DejaVuSans-74" x="357.234375"/>
      <use xlink:href="#DejaVuSans-69" x="396.443359"/>
      <use xlink:href="#DejaVuSans-6f" x="424.226562"/>
      <use xlink:href="#DejaVuSans-6e" x="485.408203"/>
      <use xlink:href="#DejaVuSans-20" x="548.787109"/>
      <use xlink:href="#DejaVuSans-43" x="580.574219"/>
      <use xlink:href="#DejaVuSans-6f" x="650.398438"/>
      <use xlink:href="#DejaVuSans-75" x="711.580078"/>
      <use xlink:href="#DejaVuSans-6e" x="774.958984"/>
      <use xlink:href="#DejaVuSans-74" x="838.337891"/>
     </g>
    </g>
   </g>
   <g id="line2d_14">
    <path clip-path="url(#p9c2ee352a7)" style="fill: none; stroke: #424242; stroke-width: 2.7; stroke-linecap: square"/>
   </g>
   <g id="line2d_15">
    <path clip-path="url(#p9c2ee352a7)" style="fill: none; stroke: #424242; stroke-width: 2.7; stroke-linecap: square"/>
   </g>
   <g id="line2d_16">
    <path clip-path="url(#p9c2ee352a7)" style="fill: none; stroke: #424242; stroke-width: 2.7; stroke-linecap: square"/>
   </g>
   <g id="line2d_17">
    <path clip-path="url(#p9c2ee352a7)" style="fill: none; stroke: #424242; stroke-width: 2.7; stroke-linecap: square"/>
   </g>
   <g id="line2d_18">
    <path clip-path="url(#p9c2ee352a7)" style="fill: none; stroke: #424242; stroke-width: 2.7; stroke-linecap: square"/>
   </g>
   <g id="line2d_19">
    <path clip-path="url(#p9c2ee352a7)" style="fill: none; stroke: #424242; stroke-width: 2.7; stroke-linecap: square"/>
   </g>
   <g id="line2d_20">
    <path clip-path="url(#p9c2ee352a7)" style="fill: none; stroke: #424242; stroke-width: 2.7; stroke-linecap: square"/>
   </g>
   <g id="line2d_21">
    <path clip-path="url(#p9c2ee352a7)" style="fill: none; stroke: #424242; stroke-width: 2.7; stroke-linecap: square"/>
   </g>
   <g id="patch_11">
    <path d="M 108 768.96 
L 108 103.68 
" style="fill: none; stroke: #000000; stroke-width: 0.8; stroke-linejoin: miter; stroke-linecap: square"/>
   </g>
   <g id="patch_12">
    <path d="M 777.6 768.96 
L 777.6 103.68 
" style="fill: none; stroke: #000000; stroke-width: 0.8; stroke-linejoin: miter; stroke-linecap: square"/>
   </g>
   <g id="patch_13">
    <path d="M 108 768.96 
L 777.6 768.96 
" style="fill: none; stroke: #000000; stroke-width: 0.8; stroke-linejoin: miter; stroke-linecap: square"/>
   </g>
   <g id="patch_14">
    <path d="M 108 103.68 
L 777.6 103.68 
" style="fill: none; stroke: #000000; stroke-width: 0.8; stroke-linejoin: miter; stroke-linecap: square"/>
   </g>
   <g id="text_16">
    <!-- 9 -->
    <g transform="translate(146.0325 132.864375) scale(0.12 -0.12)">
     <defs>
      <path id="DejaVuSans-39" d="M 703 97 
L 703 672 
Q 941 559 1184 500 
Q 1428 441 1663 441 
Q 2288 441 2617 861 
Q 2947 1281 2994 2138 
Q 2813 1869 2534 1725 
Q 2256 1581 1919 1581 
Q 1219 1581 811 2004 
Q 403 2428 403 3163 
Q 403 3881 828 4315 
Q 1253 4750 1959 4750 
Q 2769 4750 3195 4129 
Q 3622 3509 3622 2328 
Q 3622 1225 3098 567 
Q 2575 -91 1691 -91 
Q 1453 -91 1209 -44 
Q 966 3 703 97 
z
M 1959 2075 
Q 2384 2075 2632 2365 
Q 2881 2656 2881 3163 
Q 2881 3666 2632 3958 
Q 2384 4250 1959 4250 
Q 1534 4250 1286 3958 
Q 1038 3666 1038 3163 
Q 1038 2656 1286 2365 
Q 1534 2075 1959 2075 
z
" transform="scale(0.015625)"/>
     </defs>
     <use xlink:href="#DejaVuSans-39"/>
    </g>
   </g>
   <g id="text_17">
    <!-- 6 -->
    <g transform="translate(229.7325 332.948586) scale(0.12 -0.12)">
     <use xlink:href="#DejaVuSans-36"/>
    </g>
   </g>
   <g id="text_18">
    <!-- 3 -->
    <g transform="translate(313.4325 546.371743) scale(0.12 -0.12)">
     <defs>
      <path id="DejaVuSans-33" d="M 2597 2516 
Q 3050 2419 3304 2112 
Q 3559 1806 3559 1356 
Q 3559 666 3084 287 
Q 2609 -91 1734 -91 
Q 1441 -91 1130 -33 
Q 819 25 488 141 
L 488 750 
Q 750 597 1062 519 
Q 1375 441 1716 441 
Q 2309 441 2620 675 
Q 2931 909 2931 1356 
Q 2931 1769 2642 2001 
Q 2353 2234 1838 2234 
L 1294 2234 
L 1294 2753 
L 1863 2753 
Q 2328 2753 2575 2939 
Q 2822 3125 2822 3475 
Q 2822 3834 2567 4026 
Q 2313 4219 1838 4219 
Q 1578 4219 1281 4162 
Q 984 4106 628 3988 
L 628 4550 
Q 988 4650 1302 4700 
Q 1616 4750 1894 4750 
Q 2613 4750 3031 4423 
Q 3450 4097 3450 3541 
Q 3450 3153 3228 2886 
Q 3006 2619 2597 2516 
z
" transform="scale(0.015625)"/>
     </defs>
     <use xlink:href="#DejaVuSans-33"/>
    </g>
   </g>
   <g id="text_19">
    <!-- 2 -->
    <g transform="translate(397.1325 633.074901) scale(0.12 -0.12)">
     <use xlink:href="#DejaVuSans-32"/>
    </g>
   </g>
   <g id="text_20">
    <!-- 2 -->
    <g transform="translate(480.8325 633.074901) scale(0.12 -0.12)">
     <use xlink:href="#DejaVuSans-32"/>
    </g>
   </g>
   <g id="text_21">
    <!-- 1 -->
    <g transform="translate(564.5325 673.091743) scale(0.12 -0.12)">
     <defs>
      <path id="DejaVuSans-31" d="M 794 531 
L 1825 531 
L 1825 4091 
L 703 3866 
L 703 4441 
L 1819 4666 
L 2450 4666 
L 2450 531 
L 3481 531 
L 3481 0 
L 794 0 
L 794 531 
z
" transform="scale(0.015625)"/>
     </defs>
     <use xlink:href="#DejaVuSans-31"/>
    </g>
   </g>
   <g id="text_22">
    <!-- 1 -->
    <g transform="translate(648.2325 679.761217) scale(0.12 -0.12)">
     <use xlink:href="#DejaVuSans-31"/>
    </g>
   </g>
   <g id="text_23">
    <!-- 1 -->
    <g transform="translate(731.9325 679.761217) scale(0.12 -0.12)">
     <use xlink:href="#DejaVuSans-31"/>
    </g>
   </g>
   <g id="text_24">
    <!-- Publication Count by University in proglan CND Institutions -->
    <g transform="translate(266.055 97.68) scale(0.12 -0.12)">
     <defs>
      <path id="DejaVuSans-79" d="M 2059 -325 
Q 1816 -950 1584 -1140 
Q 1353 -1331 966 -1331 
L 506 -1331 
L 506 -850 
L 844 -850 
Q 1081 -850 1212 -737 
Q 1344 -625 1503 -206 
L 1606 56 
L 191 3500 
L 800 3500 
L 1894 763 
L 2988 3500 
L 3597 3500 
L 2059 -325 
z
" transform="scale(0.015625)"/>
      <path id="DejaVuSans-76" d="M 191 3500 
L 800 3500 
L 1894 563 
L 2988 3500 
L 3597 3500 
L 2284 0 
L 1503 0 
L 191 3500 
z
" transform="scale(0.015625)"/>
      <path id="DejaVuSans-65" d="M 3597 1894 
L 3597 1613 
L 953 1613 
Q 991 1019 1311 708 
Q 1631 397 2203 397 
Q 2534 397 2845 478 
Q 3156 559 3463 722 
L 3463 178 
Q 3153 47 2828 -22 
Q 2503 -91 2169 -91 
Q 1331 -91 842 396 
Q 353 884 353 1716 
Q 353 2575 817 3079 
Q 1281 3584 2069 3584 
Q 2775 3584 3186 3129 
Q 3597 2675 3597 1894 
z
M 3022 2063 
Q 3016 2534 2758 2815 
Q 2500 3097 2075 3097 
Q 1594 3097 1305 2825 
Q 1016 2553 972 2059 
L 3022 2063 
z
" transform="scale(0.015625)"/>
      <path id="DejaVuSans-73" d="M 2834 3397 
L 2834 2853 
Q 2591 2978 2328 3040 
Q 2066 3103 1784 3103 
Q 1356 3103 1142 2972 
Q 928 2841 928 2578 
Q 928 2378 1081 2264 
Q 1234 2150 1697 2047 
L 1894 2003 
Q 2506 1872 2764 1633 
Q 3022 1394 3022 966 
Q 3022 478 2636 193 
Q 2250 -91 1575 -91 
Q 1294 -91 989 -36 
Q 684 19 347 128 
L 347 722 
Q 666 556 975 473 
Q 1284 391 1588 391 
Q 1994 391 2212 530 
Q 2431 669 2431 922 
Q 2431 1156 2273 1281 
Q 2116 1406 1581 1522 
L 1381 1569 
Q 847 1681 609 1914 
Q 372 2147 372 2553 
Q 372 3047 722 3315 
Q 1072 3584 1716 3584 
Q 2034 3584 2315 3537 
Q 2597 3491 2834 3397 
z
" transform="scale(0.015625)"/>
      <path id="DejaVuSans-70" d="M 1159 525 
L 1159 -1331 
L 581 -1331 
L 581 3500 
L 1159 3500 
L 1159 2969 
Q 1341 3281 1617 3432 
Q 1894 3584 2278 3584 
Q 2916 3584 3314 3078 
Q 3713 2572 3713 1747 
Q 3713 922 3314 415 
Q 2916 -91 2278 -91 
Q 1894 -91 1617 61 
Q 1341 213 1159 525 
z
M 3116 1747 
Q 3116 2381 2855 2742 
Q 2594 3103 2138 3103 
Q 1681 3103 1420 2742 
Q 1159 2381 1159 1747 
Q 1159 1113 1420 752 
Q 1681 391 2138 391 
Q 2594 391 2855 752 
Q 3116 1113 3116 1747 
z
" transform="scale(0.015625)"/>
      <path id="DejaVuSans-67" d="M 2906 1791 
Q 2906 2416 2648 2759 
Q 2391 3103 1925 3103 
Q 1463 3103 1205 2759 
Q 947 2416 947 1791 
Q 947 1169 1205 825 
Q 1463 481 1925 481 
Q 2391 481 2648 825 
Q 2906 1169 2906 1791 
z
M 3481 434 
Q 3481 -459 3084 -895 
Q 2688 -1331 1869 -1331 
Q 1566 -1331 1297 -1286 
Q 1028 -1241 775 -1147 
L 775 -588 
Q 1028 -725 1275 -790 
Q 1522 -856 1778 -856 
Q 2344 -856 2625 -561 
Q 2906 -266 2906 331 
L 2906 616 
Q 2728 306 2450 153 
Q 2172 0 1784 0 
Q 1141 0 747 490 
Q 353 981 353 1791 
Q 353 2603 747 3093 
Q 1141 3584 1784 3584 
Q 2172 3584 2450 3431 
Q 2728 3278 2906 2969 
L 2906 3500 
L 3481 3500 
L 3481 434 
z
" transform="scale(0.015625)"/>
      <path id="DejaVuSans-4e" d="M 628 4666 
L 1478 4666 
L 3547 763 
L 3547 4666 
L 4159 4666 
L 4159 0 
L 3309 0 
L 1241 3903 
L 1241 0 
L 628 0 
L 628 4666 
z
" transform="scale(0.015625)"/>
      <path id="DejaVuSans-44" d="M 1259 4147 
L 1259 519 
L 2022 519 
Q 2988 519 3436 956 
Q 3884 1394 3884 2338 
Q 3884 3275 3436 3711 
Q 2988 4147 2022 4147 
L 1259 4147 
z
M 628 4666 
L 1925 4666 
Q 3281 4666 3915 4102 
Q 4550 3538 4550 2338 
Q 4550 1131 3912 565 
Q 3275 0 1925 0 
L 628 0 
L 628 4666 
z
" transform="scale(0.015625)"/>
      <path id="DejaVuSans-49" d="M 628 4666 
L 1259 4666 
L 1259 0 
L 628 0 
L 628 4666 
z
" transform="scale(0.015625)"/>
     </defs>
     <use xlink:href="#DejaVuSans-50"/>
     <use xlink:href="#DejaVuSans-75" x="58.552734"/>
     <use xlink:href="#DejaVuSans-62" x="121.931641"/>
     <use xlink:href="#DejaVuSans-6c" x="185.408203"/>
     <use xlink:href="#DejaVuSans-69" x="213.191406"/>
     <use xlink:href="#DejaVuSans-63" x="240.974609"/>
     <use xlink:href="#DejaVuSans-61" x="295.955078"/>
     <use xlink:href="#DejaVuSans-74" x="357.234375"/>
     <use xlink:href="#DejaVuSans-69" x="396.443359"/>
     <use xlink:href="#DejaVuSans-6f" x="424.226562"/>
     <use xlink:href="#DejaVuSans-6e" x="485.408203"/>
     <use xlink:href="#DejaVuSans-20" x="548.787109"/>
     <use xlink:href="#DejaVuSans-43" x="580.574219"/>
     <use xlink:href="#DejaVuSans-6f" x="650.398438"/>
     <use xlink:href="#DejaVuSans-75" x="711.580078"/>
     <use xlink:href="#DejaVuSans-6e" x="774.958984"/>
     <use xlink:href="#DejaVuSans-74" x="838.337891"/>
     <use xlink:href="#DejaVuSans-20" x="877.546875"/>
     <use xlink:href="#DejaVuSans-62" x="909.333984"/>
     <use xlink:href="#DejaVuSans-79" x="972.810547"/>
     <use xlink:href="#DejaVuSans-20" x="1031.990234"/>
     <use xlink:href="#DejaVuSans-55" x="1063.777344"/>
     <use xlink:href="#DejaVuSans-6e" x="1136.970703"/>
     <use xlink:href="#DejaVuSans-69" x="1200.349609"/>
     <use xlink:href="#DejaVuSans-76" x="1228.132812"/>
     <use xlink:href="#DejaVuSans-65" x="1287.3125"/>
     <use xlink:href="#DejaVuSans-72" x="1348.835938"/>
     <use xlink:href="#DejaVuSans-73" x="1389.949219"/>
     <use xlink:href="#DejaVuSans-69" x="1442.048828"/>
     <use xlink:href="#DejaVuSans-74" x="1469.832031"/>
     <use xlink:href="#DejaVuSans-79" x="1509.041016"/>
     <use xlink:href="#DejaVuSans-20" x="1568.220703"/>
     <use xlink:href="#DejaVuSans-69" x="1600.007812"/>
     <use xlink:href="#DejaVuSans-6e" x="1627.791016"/>
     <use xlink:href="#DejaVuSans-20" x="1691.169922"/>
     <use xlink:href="#DejaVuSans-70" x="1722.957031"/>
     <use xlink:href="#DejaVuSans-72" x="1786.433594"/>
     <use xlink:href="#DejaVuSans-6f" x="1825.296875"/>
     <use xlink:href="#DejaVuSans-67" x="1886.478516"/>
     <use xlink:href="#DejaVuSans-6c" x="1949.955078"/>
     <use xlink:href="#DejaVuSans-61" x="1977.738281"/>
     <use xlink:href="#DejaVuSans-6e" x="2039.017578"/>
     <use xlink:href="#DejaVuSans-20" x="2102.396484"/>
     <use xlink:href="#DejaVuSans-43" x="2134.183594"/>
     <use xlink:href="#DejaVuSans-4e" x="2204.007812"/>
     <use xlink:href="#DejaVuSans-44" x="2278.8125"/>
     <use xlink:href="#DejaVuSans-20" x="2355.814453"/>
     <use xlink:href="#DejaVuSans-49" x="2387.601562"/>
     <use xlink:href="#DejaVuSans-6e" x="2417.09375"/>
     <use xlink:href="#DejaVuSans-73" x="2480.472656"/>
     <use xlink:href="#DejaVuSans-74" x="2532.572266"/>
     <use xlink:href="#DejaVuSans-69" x="2571.78125"/>
     <use xlink:href="#DejaVuSans-74" x="2599.564453"/>
     <use xlink:href="#DejaVuSans-75" x="2638.773438"/>
     <use xlink:href="#DejaVuSans-74" x="2702.152344"/>
     <use xlink:href="#DejaVuSans-69" x="2741.361328"/>
     <use xlink:href="#DejaVuSans-6f" x="2769.144531"/>
     <use xlink:href="#DejaVuSans-6e" x="2830.326172"/>
     <use xlink:href="#DejaVuSans-73" x="2893.705078"/>
    </g>
   </g>
   <g id="legend_1">
    <g id="patch_15">
     <path d="M 553.2675 257.369 
L 734.0925 257.369 
Q 736.0925 257.369 736.0925 255.369 
L 736.0925 138.944 
Q 736.0925 136.944 734.0925 136.944 
L 553.2675 136.944 
Q 551.2675 136.944 551.2675 138.944 
L 551.2675 255.369 
Q 551.2675 257.369 553.2675 257.369 
z
" style="fill: #ffffff; opacity: 0.8; stroke: #cccccc; stroke-linejoin: miter"/>
    </g>
    <g id="patch_16">
     <path d="M 555.2675 148.542437 
L 575.2675 148.542437 
L 575.2675 141.542437 
L 555.2675 141.542437 
z
" style="fill: #3274a1; stroke: #3274a1; stroke-linejoin: miter"/>
    </g>
    <g id="text_25">
     <!-- University of Toronto -->
     <g transform="translate(583.2675 148.542437) scale(0.1 -0.1)">
      <defs>
       <path id="DejaVuSans-66" d="M 2375 4863 
L 2375 4384 
L 1825 4384 
Q 1516 4384 1395 4259 
Q 1275 4134 1275 3809 
L 1275 3500 
L 2222 3500 
L 2222 3053 
L 1275 3053 
L 1275 0 
L 697 0 
L 697 3053 
L 147 3053 
L 147 3500 
L 697 3500 
L 697 3744 
Q 697 4328 969 4595 
Q 1241 4863 1831 4863 
L 2375 4863 
z
" transform="scale(0.015625)"/>
      </defs>
      <use xlink:href="#DejaVuSans-55"/>
      <use xlink:href="#DejaVuSans-6e" x="73.193359"/>
      <use xlink:href="#DejaVuSans-69" x="136.572266"/>
      <use xlink:href="#DejaVuSans-76" x="164.355469"/>
      <use xlink:href="#DejaVuSans-65" x="223.535156"/>
      <use xlink:href="#DejaVuSans-72" x="285.058594"/>
      <use xlink:href="#DejaVuSans-73" x="326.171875"/>
      <use xlink:href="#DejaVuSans-69" x="378.271484"/>
      <use xlink:href="#DejaVuSans-74" x="406.054688"/>
      <use xlink:href="#DejaVuSans-79" x="445.263672"/>
      <use xlink:href="#DejaVuSans-20" x="504.443359"/>
      <use xlink:href="#DejaVuSans-6f" x="536.230469"/>
      <use xlink:href="#DejaVuSans-66" x="597.412109"/>
      <use xlink:href="#DejaVuSans-20" x="632.617188"/>
      <use xlink:href="#DejaVuSans-54" x="664.404297"/>
      <use xlink:href="#DejaVuSans-6f" x="708.488281"/>
      <use xlink:href="#DejaVuSans-72" x="769.669922"/>
      <use xlink:href="#DejaVuSans-6f" x="808.533203"/>
      <use xlink:href="#DejaVuSans-6e" x="869.714844"/>
      <use xlink:href="#DejaVuSans-74" x="933.09375"/>
      <use xlink:href="#DejaVuSans-6f" x="972.302734"/>
     </g>
    </g>
    <g id="patch_17">
     <path d="M 555.2675 163.220562 
L 575.2675 163.220562 
L 575.2675 156.220562 
L 555.2675 156.220562 
z
" style="fill: #e1812c; stroke: #e1812c; stroke-linejoin: miter"/>
    </g>
    <g id="text_26">
     <!-- University of Waterloo -->
     <g transform="translate(583.2675 163.220562) scale(0.1 -0.1)">
      <use xlink:href="#DejaVuSans-55"/>
      <use xlink:href="#DejaVuSans-6e" x="73.193359"/>
      <use xlink:href="#DejaVuSans-69" x="136.572266"/>
      <use xlink:href="#DejaVuSans-76" x="164.355469"/>
      <use xlink:href="#DejaVuSans-65" x="223.535156"/>
      <use xlink:href="#DejaVuSans-72" x="285.058594"/>
      <use xlink:href="#DejaVuSans-73" x="326.171875"/>
      <use xlink:href="#DejaVuSans-69" x="378.271484"/>
      <use xlink:href="#DejaVuSans-74" x="406.054688"/>
      <use xlink:href="#DejaVuSans-79" x="445.263672"/>
      <use xlink:href="#DejaVuSans-20" x="504.443359"/>
      <use xlink:href="#DejaVuSans-6f" x="536.230469"/>
      <use xlink:href="#DejaVuSans-66" x="597.412109"/>
      <use xlink:href="#DejaVuSans-20" x="632.617188"/>
      <use xlink:href="#DejaVuSans-57" x="664.404297"/>
      <use xlink:href="#DejaVuSans-61" x="756.90625"/>
      <use xlink:href="#DejaVuSans-74" x="818.185547"/>
      <use xlink:href="#DejaVuSans-65" x="857.394531"/>
      <use xlink:href="#DejaVuSans-72" x="918.917969"/>
      <use xlink:href="#DejaVuSans-6c" x="960.03125"/>
      <use xlink:href="#DejaVuSans-6f" x="987.814453"/>
      <use xlink:href="#DejaVuSans-6f" x="1048.996094"/>
     </g>
    </g>
    <g id="patch_18">
     <path d="M 555.2675 177.898687 
L 575.2675 177.898687 
L 575.2675 170.898687 
L 555.2675 170.898687 
z
" style="fill: #3a923a; stroke: #3a923a; stroke-linejoin: miter"/>
    </g>
    <g id="text_27">
     <!-- University of British Columbia -->
     <g transform="translate(583.2675 177.898687) scale(0.1 -0.1)">
      <defs>
       <path id="DejaVuSans-68" d="M 3513 2113 
L 3513 0 
L 2938 0 
L 2938 2094 
Q 2938 2591 2744 2837 
Q 2550 3084 2163 3084 
Q 1697 3084 1428 2787 
Q 1159 2491 1159 1978 
L 1159 0 
L 581 0 
L 581 4863 
L 1159 4863 
L 1159 2956 
Q 1366 3272 1645 3428 
Q 1925 3584 2291 3584 
Q 2894 3584 3203 3211 
Q 3513 2838 3513 2113 
z
" transform="scale(0.015625)"/>
       <path id="DejaVuSans-6d" d="M 3328 2828 
Q 3544 3216 3844 3400 
Q 4144 3584 4550 3584 
Q 5097 3584 5394 3201 
Q 5691 2819 5691 2113 
L 5691 0 
L 5113 0 
L 5113 2094 
Q 5113 2597 4934 2840 
Q 4756 3084 4391 3084 
Q 3944 3084 3684 2787 
Q 3425 2491 3425 1978 
L 3425 0 
L 2847 0 
L 2847 2094 
Q 2847 2600 2669 2842 
Q 2491 3084 2119 3084 
Q 1678 3084 1418 2786 
Q 1159 2488 1159 1978 
L 1159 0 
L 581 0 
L 581 3500 
L 1159 3500 
L 1159 2956 
Q 1356 3278 1631 3431 
Q 1906 3584 2284 3584 
Q 2666 3584 2933 3390 
Q 3200 3197 3328 2828 
z
" transform="scale(0.015625)"/>
      </defs>
      <use xlink:href="#DejaVuSans-55"/>
      <use xlink:href="#DejaVuSans-6e" x="73.193359"/>
      <use xlink:href="#DejaVuSans-69" x="136.572266"/>
      <use xlink:href="#DejaVuSans-76" x="164.355469"/>
      <use xlink:href="#DejaVuSans-65" x="223.535156"/>
      <use xlink:href="#DejaVuSans-72" x="285.058594"/>
      <use xlink:href="#DejaVuSans-73" x="326.171875"/>
      <use xlink:href="#DejaVuSans-69" x="378.271484"/>
      <use xlink:href="#DejaVuSans-74" x="406.054688"/>
      <use xlink:href="#DejaVuSans-79" x="445.263672"/>
      <use xlink:href="#DejaVuSans-20" x="504.443359"/>
      <use xlink:href="#DejaVuSans-6f" x="536.230469"/>
      <use xlink:href="#DejaVuSans-66" x="597.412109"/>
      <use xlink:href="#DejaVuSans-20" x="632.617188"/>
      <use xlink:href="#DejaVuSans-42" x="664.404297"/>
      <use xlink:href="#DejaVuSans-72" x="733.007812"/>
      <use xlink:href="#DejaVuSans-69" x="774.121094"/>
      <use xlink:href="#DejaVuSans-74" x="801.904297"/>
      <use xlink:href="#DejaVuSans-69" x="841.113281"/>
      <use xlink:href="#DejaVuSans-73" x="868.896484"/>
      <use xlink:href="#DejaVuSans-68" x="920.996094"/>
      <use xlink:href="#DejaVuSans-20" x="984.375"/>
      <use xlink:href="#DejaVuSans-43" x="1016.162109"/>
      <use xlink:href="#DejaVuSans-6f" x="1085.986328"/>
      <use xlink:href="#DejaVuSans-6c" x="1147.167969"/>
      <use xlink:href="#DejaVuSans-75" x="1174.951172"/>
      <use xlink:href="#DejaVuSans-6d" x="1238.330078"/>
      <use xlink:href="#DejaVuSans-62" x="1335.742188"/>
      <use xlink:href="#DejaVuSans-69" x="1399.21875"/>
      <use xlink:href="#DejaVuSans-61" x="1427.001953"/>
     </g>
    </g>
    <g id="patch_19">
     <path d="M 555.2675 192.576812 
L 575.2675 192.576812 
L 575.2675 185.576812 
L 555.2675 185.576812 
z
" style="fill: #c03d3e; stroke: #c03d3e; stroke-linejoin: miter"/>
    </g>
    <g id="text_28">
     <!-- McGill University -->
     <g transform="translate(583.2675 192.576812) scale(0.1 -0.1)">
      <defs>
       <path id="DejaVuSans-47" d="M 3809 666 
L 3809 1919 
L 2778 1919 
L 2778 2438 
L 4434 2438 
L 4434 434 
Q 4069 175 3628 42 
Q 3188 -91 2688 -91 
Q 1594 -91 976 548 
Q 359 1188 359 2328 
Q 359 3472 976 4111 
Q 1594 4750 2688 4750 
Q 3144 4750 3555 4637 
Q 3966 4525 4313 4306 
L 4313 3634 
Q 3963 3931 3569 4081 
Q 3175 4231 2741 4231 
Q 1884 4231 1454 3753 
Q 1025 3275 1025 2328 
Q 1025 1384 1454 906 
Q 1884 428 2741 428 
Q 3075 428 3337 486 
Q 3600 544 3809 666 
z
" transform="scale(0.015625)"/>
      </defs>
      <use xlink:href="#DejaVuSans-4d"/>
      <use xlink:href="#DejaVuSans-63" x="86.279297"/>
      <use xlink:href="#DejaVuSans-47" x="141.259766"/>
      <use xlink:href="#DejaVuSans-69" x="218.75"/>
      <use xlink:href="#DejaVuSans-6c" x="246.533203"/>
      <use xlink:href="#DejaVuSans-6c" x="274.316406"/>
      <use xlink:href="#DejaVuSans-20" x="302.099609"/>
      <use xlink:href="#DejaVuSans-55" x="333.886719"/>
      <use xlink:href="#DejaVuSans-6e" x="407.080078"/>
      <use xlink:href="#DejaVuSans-69" x="470.458984"/>
      <use xlink:href="#DejaVuSans-76" x="498.242188"/>
      <use xlink:href="#DejaVuSans-65" x="557.421875"/>
      <use xlink:href="#DejaVuSans-72" x="618.945312"/>
      <use xlink:href="#DejaVuSans-73" x="660.058594"/>
      <use xlink:href="#DejaVuSans-69" x="712.158203"/>
      <use xlink:href="#DejaVuSans-74" x="739.941406"/>
      <use xlink:href="#DejaVuSans-79" x="779.150391"/>
     </g>
    </g>
    <g id="patch_20">
     <path d="M 555.2675 207.254937 
L 575.2675 207.254937 
L 575.2675 200.254937 
L 555.2675 200.254937 
z
" style="fill: #9372b2; stroke: #9372b2; stroke-linejoin: miter"/>
    </g>
    <g id="text_29">
     <!-- Simon Fraser University -->
     <g transform="translate(583.2675 207.254937) scale(0.1 -0.1)">
      <use xlink:href="#DejaVuSans-53"/>
      <use xlink:href="#DejaVuSans-69" x="63.476562"/>
      <use xlink:href="#DejaVuSans-6d" x="91.259766"/>
      <use xlink:href="#DejaVuSans-6f" x="188.671875"/>
      <use xlink:href="#DejaVuSans-6e" x="249.853516"/>
      <use xlink:href="#DejaVuSans-20" x="313.232422"/>
      <use xlink:href="#DejaVuSans-46" x="345.019531"/>
      <use xlink:href="#DejaVuSans-72" x="395.289062"/>
      <use xlink:href="#DejaVuSans-61" x="436.402344"/>
      <use xlink:href="#DejaVuSans-73" x="497.681641"/>
      <use xlink:href="#DejaVuSans-65" x="549.78125"/>
      <use xlink:href="#DejaVuSans-72" x="611.304688"/>
      <use xlink:href="#DejaVuSans-20" x="652.417969"/>
      <use xlink:href="#DejaVuSans-55" x="684.205078"/>
      <use xlink:href="#DejaVuSans-6e" x="757.398438"/>
      <use xlink:href="#DejaVuSans-69" x="820.777344"/>
      <use xlink:href="#DejaVuSans-76" x="848.560547"/>
      <use xlink:href="#DejaVuSans-65" x="907.740234"/>
      <use xlink:href="#DejaVuSans-72" x="969.263672"/>
      <use xlink:href="#DejaVuSans-73" x="1010.376953"/>
      <use xlink:href="#DejaVuSans-69" x="1062.476562"/>
      <use xlink:href="#DejaVuSans-74" x="1090.259766"/>
      <use xlink:href="#DejaVuSans-79" x="1129.46875"/>
     </g>
    </g>
    <g id="patch_21">
     <path d="M 555.2675 221.933062 
L 575.2675 221.933062 
L 575.2675 214.933062 
L 555.2675 214.933062 
z
" style="fill: #845b53; stroke: #845b53; stroke-linejoin: miter"/>
    </g>
    <g id="text_30">
     <!-- Concordia University -->
     <g transform="translate(583.2675 221.933062) scale(0.1 -0.1)">
      <defs>
       <path id="DejaVuSans-64" d="M 2906 2969 
L 2906 4863 
L 3481 4863 
L 3481 0 
L 2906 0 
L 2906 525 
Q 2725 213 2448 61 
Q 2172 -91 1784 -91 
Q 1150 -91 751 415 
Q 353 922 353 1747 
Q 353 2572 751 3078 
Q 1150 3584 1784 3584 
Q 2172 3584 2448 3432 
Q 2725 3281 2906 2969 
z
M 947 1747 
Q 947 1113 1208 752 
Q 1469 391 1925 391 
Q 2381 391 2643 752 
Q 2906 1113 2906 1747 
Q 2906 2381 2643 2742 
Q 2381 3103 1925 3103 
Q 1469 3103 1208 2742 
Q 947 2381 947 1747 
z
" transform="scale(0.015625)"/>
      </defs>
      <use xlink:href="#DejaVuSans-43"/>
      <use xlink:href="#DejaVuSans-6f" x="69.824219"/>
      <use xlink:href="#DejaVuSans-6e" x="131.005859"/>
      <use xlink:href="#DejaVuSans-63" x="194.384766"/>
      <use xlink:href="#DejaVuSans-6f" x="249.365234"/>
      <use xlink:href="#DejaVuSans-72" x="310.546875"/>
      <use xlink:href="#DejaVuSans-64" x="349.910156"/>
      <use xlink:href="#DejaVuSans-69" x="413.386719"/>
      <use xlink:href="#DejaVuSans-61" x="441.169922"/>
      <use xlink:href="#DejaVuSans-20" x="502.449219"/>
      <use xlink:href="#DejaVuSans-55" x="534.236328"/>
      <use xlink:href="#DejaVuSans-6e" x="607.429688"/>
      <use xlink:href="#DejaVuSans-69" x="670.808594"/>
      <use xlink:href="#DejaVuSans-76" x="698.591797"/>
      <use xlink:href="#DejaVuSans-65" x="757.771484"/>
      <use xlink:href="#DejaVuSans-72" x="819.294922"/>
      <use xlink:href="#DejaVuSans-73" x="860.408203"/>
      <use xlink:href="#DejaVuSans-69" x="912.507812"/>
      <use xlink:href="#DejaVuSans-74" x="940.291016"/>
      <use xlink:href="#DejaVuSans-79" x="979.5"/>
     </g>
    </g>
    <g id="patch_22">
     <path d="M 555.2675 236.611187 
L 575.2675 236.611187 
L 575.2675 229.611187 
L 555.2675 229.611187 
z
" style="fill: #d684bd; stroke: #d684bd; stroke-linejoin: miter"/>
    </g>
    <g id="text_31">
     <!-- University of Alberta -->
     <g transform="translate(583.2675 236.611187) scale(0.1 -0.1)">
      <use xlink:href="#DejaVuSans-55"/>
      <use xlink:href="#DejaVuSans-6e" x="73.193359"/>
      <use xlink:href="#DejaVuSans-69" x="136.572266"/>
      <use xlink:href="#DejaVuSans-76" x="164.355469"/>
      <use xlink:href="#DejaVuSans-65" x="223.535156"/>
      <use xlink:href="#DejaVuSans-72" x="285.058594"/>
      <use xlink:href="#DejaVuSans-73" x="326.171875"/>
      <use xlink:href="#DejaVuSans-69" x="378.271484"/>
      <use xlink:href="#DejaVuSans-74" x="406.054688"/>
      <use xlink:href="#DejaVuSans-79" x="445.263672"/>
      <use xlink:href="#DejaVuSans-20" x="504.443359"/>
      <use xlink:href="#DejaVuSans-6f" x="536.230469"/>
      <use xlink:href="#DejaVuSans-66" x="597.412109"/>
      <use xlink:href="#DejaVuSans-20" x="632.617188"/>
      <use xlink:href="#DejaVuSans-41" x="664.404297"/>
      <use xlink:href="#DejaVuSans-6c" x="732.8125"/>
      <use xlink:href="#DejaVuSans-62" x="760.595703"/>
      <use xlink:href="#DejaVuSans-65" x="824.072266"/>
      <use xlink:href="#DejaVuSans-72" x="885.595703"/>
      <use xlink:href="#DejaVuSans-74" x="926.708984"/>
      <use xlink:href="#DejaVuSans-61" x="965.917969"/>
     </g>
    </g>
    <g id="patch_23">
     <path d="M 555.2675 251.289312 
L 575.2675 251.289312 
L 575.2675 244.289312 
L 555.2675 244.289312 
z
" style="fill: #7f7f7f; stroke: #7f7f7f; stroke-linejoin: miter"/>
    </g>
    <g id="text_32">
     <!-- University of Montreal -->
     <g transform="translate(583.2675 251.289312) scale(0.1 -0.1)">
      <use xlink:href="#DejaVuSans-55"/>
      <use xlink:href="#DejaVuSans-6e" x="73.193359"/>
      <use xlink:href="#DejaVuSans-69" x="136.572266"/>
      <use xlink:href="#DejaVuSans-76" x="164.355469"/>
      <use xlink:href="#DejaVuSans-65" x="223.535156"/>
      <use xlink:href="#DejaVuSans-72" x="285.058594"/>
      <use xlink:href="#DejaVuSans-73" x="326.171875"/>
      <use xlink:href="#DejaVuSans-69" x="378.271484"/>
      <use xlink:href="#DejaVuSans-74" x="406.054688"/>
      <use xlink:href="#DejaVuSans-79" x="445.263672"/>
      <use xlink:href="#DejaVuSans-20" x="504.443359"/>
      <use xlink:href="#DejaVuSans-6f" x="536.230469"/>
      <use xlink:href="#DejaVuSans-66" x="597.412109"/>
      <use xlink:href="#DejaVuSans-20" x="632.617188"/>
      <use xlink:href="#DejaVuSans-4d" x="664.404297"/>
      <use xlink:href="#DejaVuSans-6f" x="750.683594"/>
      <use xlink:href="#DejaVuSans-6e" x="811.865234"/>
      <use xlink:href="#DejaVuSans-74" x="875.244141"/>
      <use xlink:href="#DejaVuSans-72" x="914.453125"/>
      <use xlink:href="#DejaVuSans-65" x="953.316406"/>
      <use xlink:href="#DejaVuSans-61" x="1014.839844"/>
      <use xlink:href="#DejaVuSans-6c" x="1076.119141"/>
     </g>
    </g>
   </g>
  </g>
 </g>
 <defs>
  <clipPath id="p9c2ee352a7">
   <rect x="108" y="103.68" width="669.6" height="665.28"/>
  </clipPath>
 </defs>
</svg>
