<?xml version="1.0" encoding="utf-8" standalone="no"?>
<!DOCTYPE svg PUBLIC "-//W3C//DTD SVG 1.1//EN"
  "http://www.w3.org/Graphics/SVG/1.1/DTD/svg11.dtd">
<svg xmlns:xlink="http://www.w3.org/1999/xlink" width="864pt" height="864pt" viewBox="0 0 864 864" xmlns="http://www.w3.org/2000/svg" version="1.1">
 <metadata>
  <rdf:RDF xmlns:dc="http://purl.org/dc/elements/1.1/" xmlns:cc="http://creativecommons.org/ns#" xmlns:rdf="http://www.w3.org/1999/02/22-rdf-syntax-ns#">
   <cc:Work>
    <dc:type rdf:resource="http://purl.org/dc/dcmitype/StillImage"/>
    <dc:date>2023-12-09T20:09:39.630056</dc:date>
    <dc:format>image/svg+xml</dc:format>
    <dc:creator>
     <cc:Agent>
      <dc:title>Matplotlib v3.7.1, https://matplotlib.org/</dc:title>
     </cc:Agent>
    </dc:creator>
   </cc:Work>
  </rdf:RDF>
 </metadata>
 <defs>
  <style type="text/css">*{stroke-linejoin: round; stroke-linecap: butt}</style>
 </defs>
 <g id="figure_1">
  <g id="patch_1">
   <path d="M 0 864 
L 864 864 
L 864 0 
L 0 0 
z
" style="fill: #ffffff"/>
  </g>
  <g id="axes_1">
   <g id="patch_2">
    <path d="M 108 768.96 
L 777.6 768.96 
L 777.6 103.68 
L 108 103.68 
z
" style="fill: #ffffff"/>
   </g>
   <g id="patch_3">
    <path d="M 121.392 768.96 
L 228.528 768.96 
L 228.528 135.36 
L 121.392 135.36 
z
" clip-path="url(#paf9c3e5cff)" style="fill: #3274a1"/>
   </g>
   <g id="patch_4">
    <path d="M 255.312 768.96 
L 362.448 768.96 
L 362.448 211.392 
L 255.312 211.392 
z
" clip-path="url(#paf9c3e5cff)" style="fill: #e1812c"/>
   </g>
   <g id="patch_5">
    <path d="M 389.232 768.96 
L 496.368 768.96 
L 496.368 236.736 
L 389.232 236.736 
z
" clip-path="url(#paf9c3e5cff)" style="fill: #3a923a"/>
   </g>
   <g id="patch_6">
    <path d="M 523.152 768.96 
L 630.288 768.96 
L 630.288 464.832 
L 523.152 464.832 
z
" clip-path="url(#paf9c3e5cff)" style="fill: #c03d3e"/>
   </g>
   <g id="patch_7">
    <path d="M 657.072 768.96 
L 764.208 768.96 
L 764.208 464.832 
L 657.072 464.832 
z
" clip-path="url(#paf9c3e5cff)" style="fill: #9372b2"/>
   </g>
   <g id="matplotlib.axis_1">
    <g id="xtick_1">
     <g id="line2d_1">
      <defs>
       <path id="m9999650900" d="M 0 0 
L 0 3.5 
" style="stroke: #000000; stroke-width: 0.8"/>
      </defs>
      <g>
       <use xlink:href="#m9999650900" x="174.96" y="768.96" style="stroke: #000000; stroke-width: 0.8"/>
      </g>
     </g>
     <g id="text_1">
      <!-- UT -->
      <g transform="translate(168.246719 783.558437) scale(0.1 -0.1)">
       <defs>
        <path id="DejaVuSans-55" d="M 556 4666 
L 1191 4666 
L 1191 1831 
Q 1191 1081 1462 751 
Q 1734 422 2344 422 
Q 2950 422 3222 751 
Q 3494 1081 3494 1831 
L 3494 4666 
L 4128 4666 
L 4128 1753 
Q 4128 841 3676 375 
Q 3225 -91 2344 -91 
Q 1459 -91 1007 375 
Q 556 841 556 1753 
L 556 4666 
z
" transform="scale(0.015625)"/>
        <path id="DejaVuSans-54" d="M -19 4666 
L 3928 4666 
L 3928 4134 
L 2272 4134 
L 2272 0 
L 1638 0 
L 1638 4134 
L -19 4134 
L -19 4666 
z
" transform="scale(0.015625)"/>
       </defs>
       <use xlink:href="#DejaVuSans-55"/>
       <use xlink:href="#DejaVuSans-54" x="73.193359"/>
      </g>
     </g>
    </g>
    <g id="xtick_2">
     <g id="line2d_2">
      <g>
       <use xlink:href="#m9999650900" x="308.88" y="768.96" style="stroke: #000000; stroke-width: 0.8"/>
      </g>
     </g>
     <g id="text_2">
      <!-- UC -->
      <g transform="translate(301.729219 783.558437) scale(0.1 -0.1)">
       <defs>
        <path id="DejaVuSans-43" d="M 4122 4306 
L 4122 3641 
Q 3803 3938 3442 4084 
Q 3081 4231 2675 4231 
Q 1875 4231 1450 3742 
Q 1025 3253 1025 2328 
Q 1025 1406 1450 917 
Q 1875 428 2675 428 
Q 3081 428 3442 575 
Q 3803 722 4122 1019 
L 4122 359 
Q 3791 134 3420 21 
Q 3050 -91 2638 -91 
Q 1578 -91 968 557 
Q 359 1206 359 2328 
Q 359 3453 968 4101 
Q 1578 4750 2638 4750 
Q 3056 4750 3426 4639 
Q 3797 4528 4122 4306 
z
" transform="scale(0.015625)"/>
       </defs>
       <use xlink:href="#DejaVuSans-55"/>
       <use xlink:href="#DejaVuSans-43" x="73.193359"/>
      </g>
     </g>
    </g>
    <g id="xtick_3">
     <g id="line2d_3">
      <g>
       <use xlink:href="#m9999650900" x="442.8" y="768.96" style="stroke: #000000; stroke-width: 0.8"/>
      </g>
     </g>
     <g id="text_3">
      <!-- UW -->
      <g transform="translate(434.196875 783.558437) scale(0.1 -0.1)">
       <defs>
        <path id="DejaVuSans-57" d="M 213 4666 
L 850 4666 
L 1831 722 
L 2809 4666 
L 3519 4666 
L 4500 722 
L 5478 4666 
L 6119 4666 
L 4947 0 
L 4153 0 
L 3169 4050 
L 2175 0 
L 1381 0 
L 213 4666 
z
" transform="scale(0.015625)"/>
       </defs>
       <use xlink:href="#DejaVuSans-55"/>
       <use xlink:href="#DejaVuSans-57" x="73.193359"/>
      </g>
     </g>
    </g>
    <g id="xtick_4">
     <g id="line2d_4">
      <g>
       <use xlink:href="#m9999650900" x="576.72" y="768.96" style="stroke: #000000; stroke-width: 0.8"/>
      </g>
     </g>
     <g id="text_4">
      <!-- SFU -->
      <g transform="translate(567.010625 783.558437) scale(0.1 -0.1)">
       <defs>
        <path id="DejaVuSans-53" d="M 3425 4513 
L 3425 3897 
Q 3066 4069 2747 4153 
Q 2428 4238 2131 4238 
Q 1616 4238 1336 4038 
Q 1056 3838 1056 3469 
Q 1056 3159 1242 3001 
Q 1428 2844 1947 2747 
L 2328 2669 
Q 3034 2534 3370 2195 
Q 3706 1856 3706 1288 
Q 3706 609 3251 259 
Q 2797 -91 1919 -91 
Q 1588 -91 1214 -16 
Q 841 59 441 206 
L 441 856 
Q 825 641 1194 531 
Q 1563 422 1919 422 
Q 2459 422 2753 634 
Q 3047 847 3047 1241 
Q 3047 1584 2836 1778 
Q 2625 1972 2144 2069 
L 1759 2144 
Q 1053 2284 737 2584 
Q 422 2884 422 3419 
Q 422 4038 858 4394 
Q 1294 4750 2059 4750 
Q 2388 4750 2728 4690 
Q 3069 4631 3425 4513 
z
" transform="scale(0.015625)"/>
        <path id="DejaVuSans-46" d="M 628 4666 
L 3309 4666 
L 3309 4134 
L 1259 4134 
L 1259 2759 
L 3109 2759 
L 3109 2228 
L 1259 2228 
L 1259 0 
L 628 0 
L 628 4666 
z
" transform="scale(0.015625)"/>
       </defs>
       <use xlink:href="#DejaVuSans-53"/>
       <use xlink:href="#DejaVuSans-46" x="63.476562"/>
       <use xlink:href="#DejaVuSans-55" x="120.996094"/>
      </g>
     </g>
    </g>
    <g id="xtick_5">
     <g id="line2d_5">
      <g>
       <use xlink:href="#m9999650900" x="710.64" y="768.96" style="stroke: #000000; stroke-width: 0.8"/>
      </g>
     </g>
     <g id="text_5">
      <!-- UA -->
      <g transform="translate(703.560313 783.558437) scale(0.1 -0.1)">
       <defs>
        <path id="DejaVuSans-41" d="M 2188 4044 
L 1331 1722 
L 3047 1722 
L 2188 4044 
z
M 1831 4666 
L 2547 4666 
L 4325 0 
L 3669 0 
L 3244 1197 
L 1141 1197 
L 716 0 
L 50 0 
L 1831 4666 
z
" transform="scale(0.015625)"/>
       </defs>
       <use xlink:href="#DejaVuSans-55"/>
       <use xlink:href="#DejaVuSans-41" x="73.193359"/>
      </g>
     </g>
    </g>
    <g id="text_6">
     <!-- abbr -->
     <g transform="translate(431.332031 797.236562) scale(0.1 -0.1)">
      <defs>
       <path id="DejaVuSans-61" d="M 2194 1759 
Q 1497 1759 1228 1600 
Q 959 1441 959 1056 
Q 959 750 1161 570 
Q 1363 391 1709 391 
Q 2188 391 2477 730 
Q 2766 1069 2766 1631 
L 2766 1759 
L 2194 1759 
z
M 3341 1997 
L 3341 0 
L 2766 0 
L 2766 531 
Q 2569 213 2275 61 
Q 1981 -91 1556 -91 
Q 1019 -91 701 211 
Q 384 513 384 1019 
Q 384 1609 779 1909 
Q 1175 2209 1959 2209 
L 2766 2209 
L 2766 2266 
Q 2766 2663 2505 2880 
Q 2244 3097 1772 3097 
Q 1472 3097 1187 3025 
Q 903 2953 641 2809 
L 641 3341 
Q 956 3463 1253 3523 
Q 1550 3584 1831 3584 
Q 2591 3584 2966 3190 
Q 3341 2797 3341 1997 
z
" transform="scale(0.015625)"/>
       <path id="DejaVuSans-62" d="M 3116 1747 
Q 3116 2381 2855 2742 
Q 2594 3103 2138 3103 
Q 1681 3103 1420 2742 
Q 1159 2381 1159 1747 
Q 1159 1113 1420 752 
Q 1681 391 2138 391 
Q 2594 391 2855 752 
Q 3116 1113 3116 1747 
z
M 1159 2969 
Q 1341 3281 1617 3432 
Q 1894 3584 2278 3584 
Q 2916 3584 3314 3078 
Q 3713 2572 3713 1747 
Q 3713 922 3314 415 
Q 2916 -91 2278 -91 
Q 1894 -91 1617 61 
Q 1341 213 1159 525 
L 1159 0 
L 581 0 
L 581 4863 
L 1159 4863 
L 1159 2969 
z
" transform="scale(0.015625)"/>
       <path id="DejaVuSans-72" d="M 2631 2963 
Q 2534 3019 2420 3045 
Q 2306 3072 2169 3072 
Q 1681 3072 1420 2755 
Q 1159 2438 1159 1844 
L 1159 0 
L 581 0 
L 581 3500 
L 1159 3500 
L 1159 2956 
Q 1341 3275 1631 3429 
Q 1922 3584 2338 3584 
Q 2397 3584 2469 3576 
Q 2541 3569 2628 3553 
L 2631 2963 
z
" transform="scale(0.015625)"/>
      </defs>
      <use xlink:href="#DejaVuSans-61"/>
      <use xlink:href="#DejaVuSans-62" x="61.279297"/>
      <use xlink:href="#DejaVuSans-62" x="124.755859"/>
      <use xlink:href="#DejaVuSans-72" x="188.232422"/>
     </g>
    </g>
   </g>
   <g id="matplotlib.axis_2">
    <g id="ytick_1">
     <g id="line2d_6">
      <defs>
       <path id="m30deb9fc31" d="M 0 0 
L -3.5 0 
" style="stroke: #000000; stroke-width: 0.8"/>
      </defs>
      <g>
       <use xlink:href="#m30deb9fc31" x="108" y="768.96" style="stroke: #000000; stroke-width: 0.8"/>
      </g>
     </g>
     <g id="text_7">
      <!-- 0.0 -->
      <g transform="translate(85.096875 772.759219) scale(0.1 -0.1)">
       <defs>
        <path id="DejaVuSans-30" d="M 2034 4250 
Q 1547 4250 1301 3770 
Q 1056 3291 1056 2328 
Q 1056 1369 1301 889 
Q 1547 409 2034 409 
Q 2525 409 2770 889 
Q 3016 1369 3016 2328 
Q 3016 3291 2770 3770 
Q 2525 4250 2034 4250 
z
M 2034 4750 
Q 2819 4750 3233 4129 
Q 3647 3509 3647 2328 
Q 3647 1150 3233 529 
Q 2819 -91 2034 -91 
Q 1250 -91 836 529 
Q 422 1150 422 2328 
Q 422 3509 836 4129 
Q 1250 4750 2034 4750 
z
" transform="scale(0.015625)"/>
        <path id="DejaVuSans-2e" d="M 684 794 
L 1344 794 
L 1344 0 
L 684 0 
L 684 794 
z
" transform="scale(0.015625)"/>
       </defs>
       <use xlink:href="#DejaVuSans-30"/>
       <use xlink:href="#DejaVuSans-2e" x="63.623047"/>
       <use xlink:href="#DejaVuSans-30" x="95.410156"/>
      </g>
     </g>
    </g>
    <g id="ytick_2">
     <g id="line2d_7">
      <g>
       <use xlink:href="#m30deb9fc31" x="108" y="642.24" style="stroke: #000000; stroke-width: 0.8"/>
      </g>
     </g>
     <g id="text_8">
      <!-- 0.5 -->
      <g transform="translate(85.096875 646.039219) scale(0.1 -0.1)">
       <defs>
        <path id="DejaVuSans-35" d="M 691 4666 
L 3169 4666 
L 3169 4134 
L 1269 4134 
L 1269 2991 
Q 1406 3038 1543 3061 
Q 1681 3084 1819 3084 
Q 2600 3084 3056 2656 
Q 3513 2228 3513 1497 
Q 3513 744 3044 326 
Q 2575 -91 1722 -91 
Q 1428 -91 1123 -41 
Q 819 9 494 109 
L 494 744 
Q 775 591 1075 516 
Q 1375 441 1709 441 
Q 2250 441 2565 725 
Q 2881 1009 2881 1497 
Q 2881 1984 2565 2268 
Q 2250 2553 1709 2553 
Q 1456 2553 1204 2497 
Q 953 2441 691 2322 
L 691 4666 
z
" transform="scale(0.015625)"/>
       </defs>
       <use xlink:href="#DejaVuSans-30"/>
       <use xlink:href="#DejaVuSans-2e" x="63.623047"/>
       <use xlink:href="#DejaVuSans-35" x="95.410156"/>
      </g>
     </g>
    </g>
    <g id="ytick_3">
     <g id="line2d_8">
      <g>
       <use xlink:href="#m30deb9fc31" x="108" y="515.52" style="stroke: #000000; stroke-width: 0.8"/>
      </g>
     </g>
     <g id="text_9">
      <!-- 1.0 -->
      <g transform="translate(85.096875 519.319219) scale(0.1 -0.1)">
       <defs>
        <path id="DejaVuSans-31" d="M 794 531 
L 1825 531 
L 1825 4091 
L 703 3866 
L 703 4441 
L 1819 4666 
L 2450 4666 
L 2450 531 
L 3481 531 
L 3481 0 
L 794 0 
L 794 531 
z
" transform="scale(0.015625)"/>
       </defs>
       <use xlink:href="#DejaVuSans-31"/>
       <use xlink:href="#DejaVuSans-2e" x="63.623047"/>
       <use xlink:href="#DejaVuSans-30" x="95.410156"/>
      </g>
     </g>
    </g>
    <g id="ytick_4">
     <g id="line2d_9">
      <g>
       <use xlink:href="#m30deb9fc31" x="108" y="388.8" style="stroke: #000000; stroke-width: 0.8"/>
      </g>
     </g>
     <g id="text_10">
      <!-- 1.5 -->
      <g transform="translate(85.096875 392.599219) scale(0.1 -0.1)">
       <use xlink:href="#DejaVuSans-31"/>
       <use xlink:href="#DejaVuSans-2e" x="63.623047"/>
       <use xlink:href="#DejaVuSans-35" x="95.410156"/>
      </g>
     </g>
    </g>
    <g id="ytick_5">
     <g id="line2d_10">
      <g>
       <use xlink:href="#m30deb9fc31" x="108" y="262.08" style="stroke: #000000; stroke-width: 0.8"/>
      </g>
     </g>
     <g id="text_11">
      <!-- 2.0 -->
      <g transform="translate(85.096875 265.879219) scale(0.1 -0.1)">
       <defs>
        <path id="DejaVuSans-32" d="M 1228 531 
L 3431 531 
L 3431 0 
L 469 0 
L 469 531 
Q 828 903 1448 1529 
Q 2069 2156 2228 2338 
Q 2531 2678 2651 2914 
Q 2772 3150 2772 3378 
Q 2772 3750 2511 3984 
Q 2250 4219 1831 4219 
Q 1534 4219 1204 4116 
Q 875 4013 500 3803 
L 500 4441 
Q 881 4594 1212 4672 
Q 1544 4750 1819 4750 
Q 2544 4750 2975 4387 
Q 3406 4025 3406 3419 
Q 3406 3131 3298 2873 
Q 3191 2616 2906 2266 
Q 2828 2175 2409 1742 
Q 1991 1309 1228 531 
z
" transform="scale(0.015625)"/>
       </defs>
       <use xlink:href="#DejaVuSans-32"/>
       <use xlink:href="#DejaVuSans-2e" x="63.623047"/>
       <use xlink:href="#DejaVuSans-30" x="95.410156"/>
      </g>
     </g>
    </g>
    <g id="ytick_6">
     <g id="line2d_11">
      <g>
       <use xlink:href="#m30deb9fc31" x="108" y="135.36" style="stroke: #000000; stroke-width: 0.8"/>
      </g>
     </g>
     <g id="text_12">
      <!-- 2.5 -->
      <g transform="translate(85.096875 139.159219) scale(0.1 -0.1)">
       <use xlink:href="#DejaVuSans-32"/>
       <use xlink:href="#DejaVuSans-2e" x="63.623047"/>
       <use xlink:href="#DejaVuSans-35" x="95.410156"/>
      </g>
     </g>
    </g>
    <g id="text_13">
     <!-- Publication Count -->
     <g transform="translate(79.017187 480.196562) rotate(-90) scale(0.1 -0.1)">
      <defs>
       <path id="DejaVuSans-50" d="M 1259 4147 
L 1259 2394 
L 2053 2394 
Q 2494 2394 2734 2622 
Q 2975 2850 2975 3272 
Q 2975 3691 2734 3919 
Q 2494 4147 2053 4147 
L 1259 4147 
z
M 628 4666 
L 2053 4666 
Q 2838 4666 3239 4311 
Q 3641 3956 3641 3272 
Q 3641 2581 3239 2228 
Q 2838 1875 2053 1875 
L 1259 1875 
L 1259 0 
L 628 0 
L 628 4666 
z
" transform="scale(0.015625)"/>
       <path id="DejaVuSans-75" d="M 544 1381 
L 544 3500 
L 1119 3500 
L 1119 1403 
Q 1119 906 1312 657 
Q 1506 409 1894 409 
Q 2359 409 2629 706 
Q 2900 1003 2900 1516 
L 2900 3500 
L 3475 3500 
L 3475 0 
L 2900 0 
L 2900 538 
Q 2691 219 2414 64 
Q 2138 -91 1772 -91 
Q 1169 -91 856 284 
Q 544 659 544 1381 
z
M 1991 3584 
L 1991 3584 
z
" transform="scale(0.015625)"/>
       <path id="DejaVuSans-6c" d="M 603 4863 
L 1178 4863 
L 1178 0 
L 603 0 
L 603 4863 
z
" transform="scale(0.015625)"/>
       <path id="DejaVuSans-69" d="M 603 3500 
L 1178 3500 
L 1178 0 
L 603 0 
L 603 3500 
z
M 603 4863 
L 1178 4863 
L 1178 4134 
L 603 4134 
L 603 4863 
z
" transform="scale(0.015625)"/>
       <path id="DejaVuSans-63" d="M 3122 3366 
L 3122 2828 
Q 2878 2963 2633 3030 
Q 2388 3097 2138 3097 
Q 1578 3097 1268 2742 
Q 959 2388 959 1747 
Q 959 1106 1268 751 
Q 1578 397 2138 397 
Q 2388 397 2633 464 
Q 2878 531 3122 666 
L 3122 134 
Q 2881 22 2623 -34 
Q 2366 -91 2075 -91 
Q 1284 -91 818 406 
Q 353 903 353 1747 
Q 353 2603 823 3093 
Q 1294 3584 2113 3584 
Q 2378 3584 2631 3529 
Q 2884 3475 3122 3366 
z
" transform="scale(0.015625)"/>
       <path id="DejaVuSans-74" d="M 1172 4494 
L 1172 3500 
L 2356 3500 
L 2356 3053 
L 1172 3053 
L 1172 1153 
Q 1172 725 1289 603 
Q 1406 481 1766 481 
L 2356 481 
L 2356 0 
L 1766 0 
Q 1100 0 847 248 
Q 594 497 594 1153 
L 594 3053 
L 172 3053 
L 172 3500 
L 594 3500 
L 594 4494 
L 1172 4494 
z
" transform="scale(0.015625)"/>
       <path id="DejaVuSans-6f" d="M 1959 3097 
Q 1497 3097 1228 2736 
Q 959 2375 959 1747 
Q 959 1119 1226 758 
Q 1494 397 1959 397 
Q 2419 397 2687 759 
Q 2956 1122 2956 1747 
Q 2956 2369 2687 2733 
Q 2419 3097 1959 3097 
z
M 1959 3584 
Q 2709 3584 3137 3096 
Q 3566 2609 3566 1747 
Q 3566 888 3137 398 
Q 2709 -91 1959 -91 
Q 1206 -91 779 398 
Q 353 888 353 1747 
Q 353 2609 779 3096 
Q 1206 3584 1959 3584 
z
" transform="scale(0.015625)"/>
       <path id="DejaVuSans-6e" d="M 3513 2113 
L 3513 0 
L 2938 0 
L 2938 2094 
Q 2938 2591 2744 2837 
Q 2550 3084 2163 3084 
Q 1697 3084 1428 2787 
Q 1159 2491 1159 1978 
L 1159 0 
L 581 0 
L 581 3500 
L 1159 3500 
L 1159 2956 
Q 1366 3272 1645 3428 
Q 1925 3584 2291 3584 
Q 2894 3584 3203 3211 
Q 3513 2838 3513 2113 
z
" transform="scale(0.015625)"/>
       <path id="DejaVuSans-20" transform="scale(0.015625)"/>
      </defs>
      <use xlink:href="#DejaVuSans-50"/>
      <use xlink:href="#DejaVuSans-75" x="58.552734"/>
      <use xlink:href="#DejaVuSans-62" x="121.931641"/>
      <use xlink:href="#DejaVuSans-6c" x="185.408203"/>
      <use xlink:href="#DejaVuSans-69" x="213.191406"/>
      <use xlink:href="#DejaVuSans-63" x="240.974609"/>
      <use xlink:href="#DejaVuSans-61" x="295.955078"/>
      <use xlink:href="#DejaVuSans-74" x="357.234375"/>
      <use xlink:href="#DejaVuSans-69" x="396.443359"/>
      <use xlink:href="#DejaVuSans-6f" x="424.226562"/>
      <use xlink:href="#DejaVuSans-6e" x="485.408203"/>
      <use xlink:href="#DejaVuSans-20" x="548.787109"/>
      <use xlink:href="#DejaVuSans-43" x="580.574219"/>
      <use xlink:href="#DejaVuSans-6f" x="650.398438"/>
      <use xlink:href="#DejaVuSans-75" x="711.580078"/>
      <use xlink:href="#DejaVuSans-6e" x="774.958984"/>
      <use xlink:href="#DejaVuSans-74" x="838.337891"/>
     </g>
    </g>
   </g>
   <g id="line2d_12">
    <path clip-path="url(#paf9c3e5cff)" style="fill: none; stroke: #424242; stroke-width: 2.7; stroke-linecap: square"/>
   </g>
   <g id="line2d_13">
    <path clip-path="url(#paf9c3e5cff)" style="fill: none; stroke: #424242; stroke-width: 2.7; stroke-linecap: square"/>
   </g>
   <g id="line2d_14">
    <path clip-path="url(#paf9c3e5cff)" style="fill: none; stroke: #424242; stroke-width: 2.7; stroke-linecap: square"/>
   </g>
   <g id="line2d_15">
    <path clip-path="url(#paf9c3e5cff)" style="fill: none; stroke: #424242; stroke-width: 2.7; stroke-linecap: square"/>
   </g>
   <g id="line2d_16">
    <path clip-path="url(#paf9c3e5cff)" style="fill: none; stroke: #424242; stroke-width: 2.7; stroke-linecap: square"/>
   </g>
   <g id="patch_8">
    <path d="M 108 768.96 
L 108 103.68 
" style="fill: none; stroke: #000000; stroke-width: 0.8; stroke-linejoin: miter; stroke-linecap: square"/>
   </g>
   <g id="patch_9">
    <path d="M 777.6 768.96 
L 777.6 103.68 
" style="fill: none; stroke: #000000; stroke-width: 0.8; stroke-linejoin: miter; stroke-linecap: square"/>
   </g>
   <g id="patch_10">
    <path d="M 108 768.96 
L 777.6 768.96 
" style="fill: none; stroke: #000000; stroke-width: 0.8; stroke-linejoin: miter; stroke-linecap: square"/>
   </g>
   <g id="patch_11">
    <path d="M 108 103.68 
L 777.6 103.68 
" style="fill: none; stroke: #000000; stroke-width: 0.8; stroke-linejoin: miter; stroke-linecap: square"/>
   </g>
   <g id="text_14">
    <!-- 2 -->
    <g transform="translate(171.1425 132.864375) scale(0.12 -0.12)">
     <use xlink:href="#DejaVuSans-32"/>
    </g>
   </g>
   <g id="text_15">
    <!-- 2 -->
    <g transform="translate(305.0625 208.896375) scale(0.12 -0.12)">
     <use xlink:href="#DejaVuSans-32"/>
    </g>
   </g>
   <g id="text_16">
    <!-- 2 -->
    <g transform="translate(438.9825 234.240375) scale(0.12 -0.12)">
     <use xlink:href="#DejaVuSans-32"/>
    </g>
   </g>
   <g id="text_17">
    <!-- 1 -->
    <g transform="translate(572.9025 462.336375) scale(0.12 -0.12)">
     <use xlink:href="#DejaVuSans-31"/>
    </g>
   </g>
   <g id="text_18">
    <!-- 1 -->
    <g transform="translate(706.8225 462.336375) scale(0.12 -0.12)">
     <use xlink:href="#DejaVuSans-31"/>
    </g>
   </g>
   <g id="text_19">
    <!-- Publication Count by University in metr CND Institutions -->
    <g transform="translate(274.467188 97.68) scale(0.12 -0.12)">
     <defs>
      <path id="DejaVuSans-79" d="M 2059 -325 
Q 1816 -950 1584 -1140 
Q 1353 -1331 966 -1331 
L 506 -1331 
L 506 -850 
L 844 -850 
Q 1081 -850 1212 -737 
Q 1344 -625 1503 -206 
L 1606 56 
L 191 3500 
L 800 3500 
L 1894 763 
L 2988 3500 
L 3597 3500 
L 2059 -325 
z
" transform="scale(0.015625)"/>
      <path id="DejaVuSans-76" d="M 191 3500 
L 800 3500 
L 1894 563 
L 2988 3500 
L 3597 3500 
L 2284 0 
L 1503 0 
L 191 3500 
z
" transform="scale(0.015625)"/>
      <path id="DejaVuSans-65" d="M 3597 1894 
L 3597 1613 
L 953 1613 
Q 991 1019 1311 708 
Q 1631 397 2203 397 
Q 2534 397 2845 478 
Q 3156 559 3463 722 
L 3463 178 
Q 3153 47 2828 -22 
Q 2503 -91 2169 -91 
Q 1331 -91 842 396 
Q 353 884 353 1716 
Q 353 2575 817 3079 
Q 1281 3584 2069 3584 
Q 2775 3584 3186 3129 
Q 3597 2675 3597 1894 
z
M 3022 2063 
Q 3016 2534 2758 2815 
Q 2500 3097 2075 3097 
Q 1594 3097 1305 2825 
Q 1016 2553 972 2059 
L 3022 2063 
z
" transform="scale(0.015625)"/>
      <path id="DejaVuSans-73" d="M 2834 3397 
L 2834 2853 
Q 2591 2978 2328 3040 
Q 2066 3103 1784 3103 
Q 1356 3103 1142 2972 
Q 928 2841 928 2578 
Q 928 2378 1081 2264 
Q 1234 2150 1697 2047 
L 1894 2003 
Q 2506 1872 2764 1633 
Q 3022 1394 3022 966 
Q 3022 478 2636 193 
Q 2250 -91 1575 -91 
Q 1294 -91 989 -36 
Q 684 19 347 128 
L 347 722 
Q 666 556 975 473 
Q 1284 391 1588 391 
Q 1994 391 2212 530 
Q 2431 669 2431 922 
Q 2431 1156 2273 1281 
Q 2116 1406 1581 1522 
L 1381 1569 
Q 847 1681 609 1914 
Q 372 2147 372 2553 
Q 372 3047 722 3315 
Q 1072 3584 1716 3584 
Q 2034 3584 2315 3537 
Q 2597 3491 2834 3397 
z
" transform="scale(0.015625)"/>
      <path id="DejaVuSans-6d" d="M 3328 2828 
Q 3544 3216 3844 3400 
Q 4144 3584 4550 3584 
Q 5097 3584 5394 3201 
Q 5691 2819 5691 2113 
L 5691 0 
L 5113 0 
L 5113 2094 
Q 5113 2597 4934 2840 
Q 4756 3084 4391 3084 
Q 3944 3084 3684 2787 
Q 3425 2491 3425 1978 
L 3425 0 
L 2847 0 
L 2847 2094 
Q 2847 2600 2669 2842 
Q 2491 3084 2119 3084 
Q 1678 3084 1418 2786 
Q 1159 2488 1159 1978 
L 1159 0 
L 581 0 
L 581 3500 
L 1159 3500 
L 1159 2956 
Q 1356 3278 1631 3431 
Q 1906 3584 2284 3584 
Q 2666 3584 2933 3390 
Q 3200 3197 3328 2828 
z
" transform="scale(0.015625)"/>
      <path id="DejaVuSans-4e" d="M 628 4666 
L 1478 4666 
L 3547 763 
L 3547 4666 
L 4159 4666 
L 4159 0 
L 3309 0 
L 1241 3903 
L 1241 0 
L 628 0 
L 628 4666 
z
" transform="scale(0.015625)"/>
      <path id="DejaVuSans-44" d="M 1259 4147 
L 1259 519 
L 2022 519 
Q 2988 519 3436 956 
Q 3884 1394 3884 2338 
Q 3884 3275 3436 3711 
Q 2988 4147 2022 4147 
L 1259 4147 
z
M 628 4666 
L 1925 4666 
Q 3281 4666 3915 4102 
Q 4550 3538 4550 2338 
Q 4550 1131 3912 565 
Q 3275 0 1925 0 
L 628 0 
L 628 4666 
z
" transform="scale(0.015625)"/>
      <path id="DejaVuSans-49" d="M 628 4666 
L 1259 4666 
L 1259 0 
L 628 0 
L 628 4666 
z
" transform="scale(0.015625)"/>
     </defs>
     <use xlink:href="#DejaVuSans-50"/>
     <use xlink:href="#DejaVuSans-75" x="58.552734"/>
     <use xlink:href="#DejaVuSans-62" x="121.931641"/>
     <use xlink:href="#DejaVuSans-6c" x="185.408203"/>
     <use xlink:href="#DejaVuSans-69" x="213.191406"/>
     <use xlink:href="#DejaVuSans-63" x="240.974609"/>
     <use xlink:href="#DejaVuSans-61" x="295.955078"/>
     <use xlink:href="#DejaVuSans-74" x="357.234375"/>
     <use xlink:href="#DejaVuSans-69" x="396.443359"/>
     <use xlink:href="#DejaVuSans-6f" x="424.226562"/>
     <use xlink:href="#DejaVuSans-6e" x="485.408203"/>
     <use xlink:href="#DejaVuSans-20" x="548.787109"/>
     <use xlink:href="#DejaVuSans-43" x="580.574219"/>
     <use xlink:href="#DejaVuSans-6f" x="650.398438"/>
     <use xlink:href="#DejaVuSans-75" x="711.580078"/>
     <use xlink:href="#DejaVuSans-6e" x="774.958984"/>
     <use xlink:href="#DejaVuSans-74" x="838.337891"/>
     <use xlink:href="#DejaVuSans-20" x="877.546875"/>
     <use xlink:href="#DejaVuSans-62" x="909.333984"/>
     <use xlink:href="#DejaVuSans-79" x="972.810547"/>
     <use xlink:href="#DejaVuSans-20" x="1031.990234"/>
     <use xlink:href="#DejaVuSans-55" x="1063.777344"/>
     <use xlink:href="#DejaVuSans-6e" x="1136.970703"/>
     <use xlink:href="#DejaVuSans-69" x="1200.349609"/>
     <use xlink:href="#DejaVuSans-76" x="1228.132812"/>
     <use xlink:href="#DejaVuSans-65" x="1287.3125"/>
     <use xlink:href="#DejaVuSans-72" x="1348.835938"/>
     <use xlink:href="#DejaVuSans-73" x="1389.949219"/>
     <use xlink:href="#DejaVuSans-69" x="1442.048828"/>
     <use xlink:href="#DejaVuSans-74" x="1469.832031"/>
     <use xlink:href="#DejaVuSans-79" x="1509.041016"/>
     <use xlink:href="#DejaVuSans-20" x="1568.220703"/>
     <use xlink:href="#DejaVuSans-69" x="1600.007812"/>
     <use xlink:href="#DejaVuSans-6e" x="1627.791016"/>
     <use xlink:href="#DejaVuSans-20" x="1691.169922"/>
     <use xlink:href="#DejaVuSans-6d" x="1722.957031"/>
     <use xlink:href="#DejaVuSans-65" x="1820.369141"/>
     <use xlink:href="#DejaVuSans-74" x="1881.892578"/>
     <use xlink:href="#DejaVuSans-72" x="1921.101562"/>
     <use xlink:href="#DejaVuSans-20" x="1962.214844"/>
     <use xlink:href="#DejaVuSans-43" x="1994.001953"/>
     <use xlink:href="#DejaVuSans-4e" x="2063.826172"/>
     <use xlink:href="#DejaVuSans-44" x="2138.630859"/>
     <use xlink:href="#DejaVuSans-20" x="2215.632812"/>
     <use xlink:href="#DejaVuSans-49" x="2247.419922"/>
     <use xlink:href="#DejaVuSans-6e" x="2276.912109"/>
     <use xlink:href="#DejaVuSans-73" x="2340.291016"/>
     <use xlink:href="#DejaVuSans-74" x="2392.390625"/>
     <use xlink:href="#DejaVuSans-69" x="2431.599609"/>
     <use xlink:href="#DejaVuSans-74" x="2459.382812"/>
     <use xlink:href="#DejaVuSans-75" x="2498.591797"/>
     <use xlink:href="#DejaVuSans-74" x="2561.970703"/>
     <use xlink:href="#DejaVuSans-69" x="2601.179688"/>
     <use xlink:href="#DejaVuSans-6f" x="2628.962891"/>
     <use xlink:href="#DejaVuSans-6e" x="2690.144531"/>
     <use xlink:href="#DejaVuSans-73" x="2753.523438"/>
    </g>
   </g>
   <g id="legend_1">
    <g id="patch_12">
     <path d="M 568.24875 213.334625 
L 719.11125 213.334625 
Q 721.11125 213.334625 721.11125 211.334625 
L 721.11125 138.944 
Q 721.11125 136.944 719.11125 136.944 
L 568.24875 136.944 
Q 566.24875 136.944 566.24875 138.944 
L 566.24875 211.334625 
Q 566.24875 213.334625 568.24875 213.334625 
z
" style="fill: #ffffff; opacity: 0.8; stroke: #cccccc; stroke-linejoin: miter"/>
    </g>
    <g id="patch_13">
     <path d="M 570.24875 148.542438 
L 590.24875 148.542438 
L 590.24875 141.542438 
L 570.24875 141.542438 
z
" style="fill: #3274a1; stroke: #3274a1; stroke-linejoin: miter"/>
    </g>
    <g id="text_20">
     <!-- University of Toronto -->
     <g transform="translate(598.24875 148.542438) scale(0.1 -0.1)">
      <defs>
       <path id="DejaVuSans-66" d="M 2375 4863 
L 2375 4384 
L 1825 4384 
Q 1516 4384 1395 4259 
Q 1275 4134 1275 3809 
L 1275 3500 
L 2222 3500 
L 2222 3053 
L 1275 3053 
L 1275 0 
L 697 0 
L 697 3053 
L 147 3053 
L 147 3500 
L 697 3500 
L 697 3744 
Q 697 4328 969 4595 
Q 1241 4863 1831 4863 
L 2375 4863 
z
" transform="scale(0.015625)"/>
      </defs>
      <use xlink:href="#DejaVuSans-55"/>
      <use xlink:href="#DejaVuSans-6e" x="73.193359"/>
      <use xlink:href="#DejaVuSans-69" x="136.572266"/>
      <use xlink:href="#DejaVuSans-76" x="164.355469"/>
      <use xlink:href="#DejaVuSans-65" x="223.535156"/>
      <use xlink:href="#DejaVuSans-72" x="285.058594"/>
      <use xlink:href="#DejaVuSans-73" x="326.171875"/>
      <use xlink:href="#DejaVuSans-69" x="378.271484"/>
      <use xlink:href="#DejaVuSans-74" x="406.054688"/>
      <use xlink:href="#DejaVuSans-79" x="445.263672"/>
      <use xlink:href="#DejaVuSans-20" x="504.443359"/>
      <use xlink:href="#DejaVuSans-6f" x="536.230469"/>
      <use xlink:href="#DejaVuSans-66" x="597.412109"/>
      <use xlink:href="#DejaVuSans-20" x="632.617188"/>
      <use xlink:href="#DejaVuSans-54" x="664.404297"/>
      <use xlink:href="#DejaVuSans-6f" x="708.488281"/>
      <use xlink:href="#DejaVuSans-72" x="769.669922"/>
      <use xlink:href="#DejaVuSans-6f" x="808.533203"/>
      <use xlink:href="#DejaVuSans-6e" x="869.714844"/>
      <use xlink:href="#DejaVuSans-74" x="933.09375"/>
      <use xlink:href="#DejaVuSans-6f" x="972.302734"/>
     </g>
    </g>
    <g id="patch_14">
     <path d="M 570.24875 163.220563 
L 590.24875 163.220563 
L 590.24875 156.220563 
L 570.24875 156.220563 
z
" style="fill: #e1812c; stroke: #e1812c; stroke-linejoin: miter"/>
    </g>
    <g id="text_21">
     <!-- University of Calgary -->
     <g transform="translate(598.24875 163.220563) scale(0.1 -0.1)">
      <defs>
       <path id="DejaVuSans-67" d="M 2906 1791 
Q 2906 2416 2648 2759 
Q 2391 3103 1925 3103 
Q 1463 3103 1205 2759 
Q 947 2416 947 1791 
Q 947 1169 1205 825 
Q 1463 481 1925 481 
Q 2391 481 2648 825 
Q 2906 1169 2906 1791 
z
M 3481 434 
Q 3481 -459 3084 -895 
Q 2688 -1331 1869 -1331 
Q 1566 -1331 1297 -1286 
Q 1028 -1241 775 -1147 
L 775 -588 
Q 1028 -725 1275 -790 
Q 1522 -856 1778 -856 
Q 2344 -856 2625 -561 
Q 2906 -266 2906 331 
L 2906 616 
Q 2728 306 2450 153 
Q 2172 0 1784 0 
Q 1141 0 747 490 
Q 353 981 353 1791 
Q 353 2603 747 3093 
Q 1141 3584 1784 3584 
Q 2172 3584 2450 3431 
Q 2728 3278 2906 2969 
L 2906 3500 
L 3481 3500 
L 3481 434 
z
" transform="scale(0.015625)"/>
      </defs>
      <use xlink:href="#DejaVuSans-55"/>
      <use xlink:href="#DejaVuSans-6e" x="73.193359"/>
      <use xlink:href="#DejaVuSans-69" x="136.572266"/>
      <use xlink:href="#DejaVuSans-76" x="164.355469"/>
      <use xlink:href="#DejaVuSans-65" x="223.535156"/>
      <use xlink:href="#DejaVuSans-72" x="285.058594"/>
      <use xlink:href="#DejaVuSans-73" x="326.171875"/>
      <use xlink:href="#DejaVuSans-69" x="378.271484"/>
      <use xlink:href="#DejaVuSans-74" x="406.054688"/>
      <use xlink:href="#DejaVuSans-79" x="445.263672"/>
      <use xlink:href="#DejaVuSans-20" x="504.443359"/>
      <use xlink:href="#DejaVuSans-6f" x="536.230469"/>
      <use xlink:href="#DejaVuSans-66" x="597.412109"/>
      <use xlink:href="#DejaVuSans-20" x="632.617188"/>
      <use xlink:href="#DejaVuSans-43" x="664.404297"/>
      <use xlink:href="#DejaVuSans-61" x="734.228516"/>
      <use xlink:href="#DejaVuSans-6c" x="795.507812"/>
      <use xlink:href="#DejaVuSans-67" x="823.291016"/>
      <use xlink:href="#DejaVuSans-61" x="886.767578"/>
      <use xlink:href="#DejaVuSans-72" x="948.046875"/>
      <use xlink:href="#DejaVuSans-79" x="989.160156"/>
     </g>
    </g>
    <g id="patch_15">
     <path d="M 570.24875 177.898688 
L 590.24875 177.898688 
L 590.24875 170.898688 
L 570.24875 170.898688 
z
" style="fill: #3a923a; stroke: #3a923a; stroke-linejoin: miter"/>
    </g>
    <g id="text_22">
     <!-- University of Waterloo -->
     <g transform="translate(598.24875 177.898688) scale(0.1 -0.1)">
      <use xlink:href="#DejaVuSans-55"/>
      <use xlink:href="#DejaVuSans-6e" x="73.193359"/>
      <use xlink:href="#DejaVuSans-69" x="136.572266"/>
      <use xlink:href="#DejaVuSans-76" x="164.355469"/>
      <use xlink:href="#DejaVuSans-65" x="223.535156"/>
      <use xlink:href="#DejaVuSans-72" x="285.058594"/>
      <use xlink:href="#DejaVuSans-73" x="326.171875"/>
      <use xlink:href="#DejaVuSans-69" x="378.271484"/>
      <use xlink:href="#DejaVuSans-74" x="406.054688"/>
      <use xlink:href="#DejaVuSans-79" x="445.263672"/>
      <use xlink:href="#DejaVuSans-20" x="504.443359"/>
      <use xlink:href="#DejaVuSans-6f" x="536.230469"/>
      <use xlink:href="#DejaVuSans-66" x="597.412109"/>
      <use xlink:href="#DejaVuSans-20" x="632.617188"/>
      <use xlink:href="#DejaVuSans-57" x="664.404297"/>
      <use xlink:href="#DejaVuSans-61" x="756.90625"/>
      <use xlink:href="#DejaVuSans-74" x="818.185547"/>
      <use xlink:href="#DejaVuSans-65" x="857.394531"/>
      <use xlink:href="#DejaVuSans-72" x="918.917969"/>
      <use xlink:href="#DejaVuSans-6c" x="960.03125"/>
      <use xlink:href="#DejaVuSans-6f" x="987.814453"/>
      <use xlink:href="#DejaVuSans-6f" x="1048.996094"/>
     </g>
    </g>
    <g id="patch_16">
     <path d="M 570.24875 192.576812 
L 590.24875 192.576812 
L 590.24875 185.576812 
L 570.24875 185.576812 
z
" style="fill: #c03d3e; stroke: #c03d3e; stroke-linejoin: miter"/>
    </g>
    <g id="text_23">
     <!-- Simon Fraser University -->
     <g transform="translate(598.24875 192.576812) scale(0.1 -0.1)">
      <use xlink:href="#DejaVuSans-53"/>
      <use xlink:href="#DejaVuSans-69" x="63.476562"/>
      <use xlink:href="#DejaVuSans-6d" x="91.259766"/>
      <use xlink:href="#DejaVuSans-6f" x="188.671875"/>
      <use xlink:href="#DejaVuSans-6e" x="249.853516"/>
      <use xlink:href="#DejaVuSans-20" x="313.232422"/>
      <use xlink:href="#DejaVuSans-46" x="345.019531"/>
      <use xlink:href="#DejaVuSans-72" x="395.289062"/>
      <use xlink:href="#DejaVuSans-61" x="436.402344"/>
      <use xlink:href="#DejaVuSans-73" x="497.681641"/>
      <use xlink:href="#DejaVuSans-65" x="549.78125"/>
      <use xlink:href="#DejaVuSans-72" x="611.304688"/>
      <use xlink:href="#DejaVuSans-20" x="652.417969"/>
      <use xlink:href="#DejaVuSans-55" x="684.205078"/>
      <use xlink:href="#DejaVuSans-6e" x="757.398438"/>
      <use xlink:href="#DejaVuSans-69" x="820.777344"/>
      <use xlink:href="#DejaVuSans-76" x="848.560547"/>
      <use xlink:href="#DejaVuSans-65" x="907.740234"/>
      <use xlink:href="#DejaVuSans-72" x="969.263672"/>
      <use xlink:href="#DejaVuSans-73" x="1010.376953"/>
      <use xlink:href="#DejaVuSans-69" x="1062.476562"/>
      <use xlink:href="#DejaVuSans-74" x="1090.259766"/>
      <use xlink:href="#DejaVuSans-79" x="1129.46875"/>
     </g>
    </g>
    <g id="patch_17">
     <path d="M 570.24875 207.254937 
L 590.24875 207.254937 
L 590.24875 200.254937 
L 570.24875 200.254937 
z
" style="fill: #9372b2; stroke: #9372b2; stroke-linejoin: miter"/>
    </g>
    <g id="text_24">
     <!-- University of Alberta -->
     <g transform="translate(598.24875 207.254937) scale(0.1 -0.1)">
      <use xlink:href="#DejaVuSans-55"/>
      <use xlink:href="#DejaVuSans-6e" x="73.193359"/>
      <use xlink:href="#DejaVuSans-69" x="136.572266"/>
      <use xlink:href="#DejaVuSans-76" x="164.355469"/>
      <use xlink:href="#DejaVuSans-65" x="223.535156"/>
      <use xlink:href="#DejaVuSans-72" x="285.058594"/>
      <use xlink:href="#DejaVuSans-73" x="326.171875"/>
      <use xlink:href="#DejaVuSans-69" x="378.271484"/>
      <use xlink:href="#DejaVuSans-74" x="406.054688"/>
      <use xlink:href="#DejaVuSans-79" x="445.263672"/>
      <use xlink:href="#DejaVuSans-20" x="504.443359"/>
      <use xlink:href="#DejaVuSans-6f" x="536.230469"/>
      <use xlink:href="#DejaVuSans-66" x="597.412109"/>
      <use xlink:href="#DejaVuSans-20" x="632.617188"/>
      <use xlink:href="#DejaVuSans-41" x="664.404297"/>
      <use xlink:href="#DejaVuSans-6c" x="732.8125"/>
      <use xlink:href="#DejaVuSans-62" x="760.595703"/>
      <use xlink:href="#DejaVuSans-65" x="824.072266"/>
      <use xlink:href="#DejaVuSans-72" x="885.595703"/>
      <use xlink:href="#DejaVuSans-74" x="926.708984"/>
      <use xlink:href="#DejaVuSans-61" x="965.917969"/>
     </g>
    </g>
   </g>
  </g>
 </g>
 <defs>
  <clipPath id="paf9c3e5cff">
   <rect x="108" y="103.68" width="669.6" height="665.28"/>
  </clipPath>
 </defs>
</svg>
