<?xml version="1.0" encoding="utf-8" standalone="no"?>
<!DOCTYPE svg PUBLIC "-//W3C//DTD SVG 1.1//EN"
  "http://www.w3.org/Graphics/SVG/1.1/DTD/svg11.dtd">
<svg xmlns:xlink="http://www.w3.org/1999/xlink" width="720pt" height="576pt" viewBox="0 0 720 576" xmlns="http://www.w3.org/2000/svg" version="1.1">
 <metadata>
  <rdf:RDF xmlns:dc="http://purl.org/dc/elements/1.1/" xmlns:cc="http://creativecommons.org/ns#" xmlns:rdf="http://www.w3.org/1999/02/22-rdf-syntax-ns#">
   <cc:Work>
    <dc:type rdf:resource="http://purl.org/dc/dcmitype/StillImage"/>
    <dc:date>2023-12-12T15:41:34.632514</dc:date>
    <dc:format>image/svg+xml</dc:format>
    <dc:creator>
     <cc:Agent>
      <dc:title>Matplotlib v3.7.1, https://matplotlib.org/</dc:title>
     </cc:Agent>
    </dc:creator>
   </cc:Work>
  </rdf:RDF>
 </metadata>
 <defs>
  <style type="text/css">*{stroke-linejoin: round; stroke-linecap: butt}</style>
 </defs>
 <g id="figure_1">
  <g id="patch_1">
   <path d="M 0 576 
L 720 576 
L 720 0 
L 0 0 
z
" style="fill: #ffffff"/>
  </g>
  <g id="axes_1">
   <g id="patch_2">
    <path d="M 90 512.64 
L 648 512.64 
L 648 69.12 
L 90 69.12 
z
" style="fill: #ffffff"/>
   </g>
   <g id="PathCollection_1">
    <defs>
     <path id="C0_0_53066a9fe7" d="M 0 5 
C 1.326016 5 2.597899 4.473168 3.535534 3.535534 
C 4.473168 2.597899 5 1.326016 5 -0 
C 5 -1.326016 4.473168 -2.597899 3.535534 -3.535534 
C 2.597899 -4.473168 1.326016 -5 0 -5 
C -1.326016 -5 -2.597899 -4.473168 -3.535534 -3.535534 
C -4.473168 -2.597899 -5 -1.326016 -5 0 
C -5 1.326016 -4.473168 2.597899 -3.535534 3.535534 
C -2.597899 4.473168 -1.326016 5 0 5 
z
"/>
    </defs>
    <g clip-path="url(#pd8d6dc1573)">
     <use xlink:href="#C0_0_53066a9fe7" x="622.636364" y="89.28" style="fill: #66c2a5; stroke: #ffffff; stroke-width: 0.8"/>
    </g>
    <g clip-path="url(#pd8d6dc1573)">
     <use xlink:href="#C0_0_53066a9fe7" x="475.777552" y="172.95156" style="fill: #fc8d62; stroke: #ffffff; stroke-width: 0.8"/>
    </g>
    <g clip-path="url(#pd8d6dc1573)">
     <use xlink:href="#C0_0_53066a9fe7" x="342.347372" y="492.48" style="fill: #8da0cb; stroke: #ffffff; stroke-width: 0.8"/>
    </g>
    <g clip-path="url(#pd8d6dc1573)">
     <use xlink:href="#C0_0_53066a9fe7" x="115.363636" y="492.48" style="fill: #e78ac3; stroke: #ffffff; stroke-width: 0.8"/>
    </g>
    <g clip-path="url(#pd8d6dc1573)">
     <use xlink:href="#C0_0_53066a9fe7" x="115.363636" y="492.48" style="fill: #a6d854; stroke: #ffffff; stroke-width: 0.8"/>
    </g>
    <g clip-path="url(#pd8d6dc1573)">
     <use xlink:href="#C0_0_53066a9fe7" x="115.363636" y="290.88" style="fill: #ffd92f; stroke: #ffffff; stroke-width: 0.8"/>
    </g>
    <g clip-path="url(#pd8d6dc1573)">
     <use xlink:href="#C0_0_53066a9fe7" x="115.363636" y="492.48" style="fill: #e5c494; stroke: #ffffff; stroke-width: 0.8"/>
    </g>
   </g>
   <g id="PathCollection_2"/>
   <g id="PathCollection_3"/>
   <g id="PathCollection_4"/>
   <g id="PathCollection_5"/>
   <g id="PathCollection_6"/>
   <g id="PathCollection_7"/>
   <g id="PathCollection_8"/>
   <g id="matplotlib.axis_1">
    <g id="xtick_1">
     <g id="line2d_1">
      <defs>
       <path id="m46afce09cc" d="M 0 0 
L 0 2 
" style="stroke: #000000; stroke-width: 0.6"/>
      </defs>
      <g>
       <use xlink:href="#m46afce09cc" x="179.042029" y="512.64" style="stroke: #000000; stroke-width: 0.6"/>
      </g>
     </g>
     <g id="text_1">
      <!-- $\mathdefault{1.2\times10^{0}}$ -->
      <g transform="translate(156.442029 525.638438) scale(0.1 -0.1)">
       <defs>
        <path id="DejaVuSans-31" d="M 794 531 
L 1825 531 
L 1825 4091 
L 703 3866 
L 703 4441 
L 1819 4666 
L 2450 4666 
L 2450 531 
L 3481 531 
L 3481 0 
L 794 0 
L 794 531 
z
" transform="scale(0.015625)"/>
        <path id="DejaVuSans-2e" d="M 684 794 
L 1344 794 
L 1344 0 
L 684 0 
L 684 794 
z
" transform="scale(0.015625)"/>
        <path id="DejaVuSans-32" d="M 1228 531 
L 3431 531 
L 3431 0 
L 469 0 
L 469 531 
Q 828 903 1448 1529 
Q 2069 2156 2228 2338 
Q 2531 2678 2651 2914 
Q 2772 3150 2772 3378 
Q 2772 3750 2511 3984 
Q 2250 4219 1831 4219 
Q 1534 4219 1204 4116 
Q 875 4013 500 3803 
L 500 4441 
Q 881 4594 1212 4672 
Q 1544 4750 1819 4750 
Q 2544 4750 2975 4387 
Q 3406 4025 3406 3419 
Q 3406 3131 3298 2873 
Q 3191 2616 2906 2266 
Q 2828 2175 2409 1742 
Q 1991 1309 1228 531 
z
" transform="scale(0.015625)"/>
        <path id="DejaVuSans-d7" d="M 4488 3438 
L 3059 2003 
L 4488 575 
L 4116 197 
L 2681 1631 
L 1247 197 
L 878 575 
L 2303 2003 
L 878 3438 
L 1247 3816 
L 2681 2381 
L 4116 3816 
L 4488 3438 
z
" transform="scale(0.015625)"/>
        <path id="DejaVuSans-30" d="M 2034 4250 
Q 1547 4250 1301 3770 
Q 1056 3291 1056 2328 
Q 1056 1369 1301 889 
Q 1547 409 2034 409 
Q 2525 409 2770 889 
Q 3016 1369 3016 2328 
Q 3016 3291 2770 3770 
Q 2525 4250 2034 4250 
z
M 2034 4750 
Q 2819 4750 3233 4129 
Q 3647 3509 3647 2328 
Q 3647 1150 3233 529 
Q 2819 -91 2034 -91 
Q 1250 -91 836 529 
Q 422 1150 422 2328 
Q 422 3509 836 4129 
Q 1250 4750 2034 4750 
z
" transform="scale(0.015625)"/>
       </defs>
       <use xlink:href="#DejaVuSans-31" transform="translate(0 0.765625)"/>
       <use xlink:href="#DejaVuSans-2e" transform="translate(63.623047 0.765625)"/>
       <use xlink:href="#DejaVuSans-32" transform="translate(89.910156 0.765625)"/>
       <use xlink:href="#DejaVuSans-d7" transform="translate(173.015625 0.765625)"/>
       <use xlink:href="#DejaVuSans-31" transform="translate(276.287109 0.765625)"/>
       <use xlink:href="#DejaVuSans-30" transform="translate(339.910156 0.765625)"/>
       <use xlink:href="#DejaVuSans-30" transform="translate(404.490234 39.046875) scale(0.7)"/>
      </g>
     </g>
    </g>
    <g id="xtick_2">
     <g id="line2d_2">
      <g>
       <use xlink:href="#m46afce09cc" x="291.855639" y="512.64" style="stroke: #000000; stroke-width: 0.6"/>
      </g>
     </g>
     <g id="text_2">
      <!-- $\mathdefault{1.4\times10^{0}}$ -->
      <g transform="translate(268.955639 525.638438) scale(0.1 -0.1)">
       <defs>
        <path id="DejaVuSans-34" d="M 2419 4116 
L 825 1625 
L 2419 1625 
L 2419 4116 
z
M 2253 4666 
L 3047 4666 
L 3047 1625 
L 3713 1625 
L 3713 1100 
L 3047 1100 
L 3047 0 
L 2419 0 
L 2419 1100 
L 313 1100 
L 313 1709 
L 2253 4666 
z
" transform="scale(0.015625)"/>
       </defs>
       <use xlink:href="#DejaVuSans-31" transform="translate(0 0.765625)"/>
       <use xlink:href="#DejaVuSans-2e" transform="translate(63.623047 0.765625)"/>
       <use xlink:href="#DejaVuSans-34" transform="translate(95.410156 0.765625)"/>
       <use xlink:href="#DejaVuSans-d7" transform="translate(178.515625 0.765625)"/>
       <use xlink:href="#DejaVuSans-31" transform="translate(281.787109 0.765625)"/>
       <use xlink:href="#DejaVuSans-30" transform="translate(345.410156 0.765625)"/>
       <use xlink:href="#DejaVuSans-30" transform="translate(409.990234 39.046875) scale(0.7)"/>
      </g>
     </g>
    </g>
    <g id="xtick_3">
     <g id="line2d_3">
      <g>
       <use xlink:href="#m46afce09cc" x="389.579233" y="512.64" style="stroke: #000000; stroke-width: 0.6"/>
      </g>
     </g>
     <g id="text_3">
      <!-- $\mathdefault{1.6\times10^{0}}$ -->
      <g transform="translate(366.679233 525.638438) scale(0.1 -0.1)">
       <defs>
        <path id="DejaVuSans-36" d="M 2113 2584 
Q 1688 2584 1439 2293 
Q 1191 2003 1191 1497 
Q 1191 994 1439 701 
Q 1688 409 2113 409 
Q 2538 409 2786 701 
Q 3034 994 3034 1497 
Q 3034 2003 2786 2293 
Q 2538 2584 2113 2584 
z
M 3366 4563 
L 3366 3988 
Q 3128 4100 2886 4159 
Q 2644 4219 2406 4219 
Q 1781 4219 1451 3797 
Q 1122 3375 1075 2522 
Q 1259 2794 1537 2939 
Q 1816 3084 2150 3084 
Q 2853 3084 3261 2657 
Q 3669 2231 3669 1497 
Q 3669 778 3244 343 
Q 2819 -91 2113 -91 
Q 1303 -91 875 529 
Q 447 1150 447 2328 
Q 447 3434 972 4092 
Q 1497 4750 2381 4750 
Q 2619 4750 2861 4703 
Q 3103 4656 3366 4563 
z
" transform="scale(0.015625)"/>
       </defs>
       <use xlink:href="#DejaVuSans-31" transform="translate(0 0.765625)"/>
       <use xlink:href="#DejaVuSans-2e" transform="translate(63.623047 0.765625)"/>
       <use xlink:href="#DejaVuSans-36" transform="translate(95.410156 0.765625)"/>
       <use xlink:href="#DejaVuSans-d7" transform="translate(178.515625 0.765625)"/>
       <use xlink:href="#DejaVuSans-31" transform="translate(281.787109 0.765625)"/>
       <use xlink:href="#DejaVuSans-30" transform="translate(345.410156 0.765625)"/>
       <use xlink:href="#DejaVuSans-30" transform="translate(409.990234 39.046875) scale(0.7)"/>
      </g>
     </g>
    </g>
    <g id="xtick_4">
     <g id="line2d_4">
      <g>
       <use xlink:href="#m46afce09cc" x="475.777552" y="512.64" style="stroke: #000000; stroke-width: 0.6"/>
      </g>
     </g>
     <g id="text_4">
      <!-- $\mathdefault{1.8\times10^{0}}$ -->
      <g transform="translate(453.027552 525.638438) scale(0.1 -0.1)">
       <defs>
        <path id="DejaVuSans-38" d="M 2034 2216 
Q 1584 2216 1326 1975 
Q 1069 1734 1069 1313 
Q 1069 891 1326 650 
Q 1584 409 2034 409 
Q 2484 409 2743 651 
Q 3003 894 3003 1313 
Q 3003 1734 2745 1975 
Q 2488 2216 2034 2216 
z
M 1403 2484 
Q 997 2584 770 2862 
Q 544 3141 544 3541 
Q 544 4100 942 4425 
Q 1341 4750 2034 4750 
Q 2731 4750 3128 4425 
Q 3525 4100 3525 3541 
Q 3525 3141 3298 2862 
Q 3072 2584 2669 2484 
Q 3125 2378 3379 2068 
Q 3634 1759 3634 1313 
Q 3634 634 3220 271 
Q 2806 -91 2034 -91 
Q 1263 -91 848 271 
Q 434 634 434 1313 
Q 434 1759 690 2068 
Q 947 2378 1403 2484 
z
M 1172 3481 
Q 1172 3119 1398 2916 
Q 1625 2713 2034 2713 
Q 2441 2713 2670 2916 
Q 2900 3119 2900 3481 
Q 2900 3844 2670 4047 
Q 2441 4250 2034 4250 
Q 1625 4250 1398 4047 
Q 1172 3844 1172 3481 
z
" transform="scale(0.015625)"/>
       </defs>
       <use xlink:href="#DejaVuSans-31" transform="translate(0 0.765625)"/>
       <use xlink:href="#DejaVuSans-2e" transform="translate(63.623047 0.765625)"/>
       <use xlink:href="#DejaVuSans-38" transform="translate(92.785156 0.765625)"/>
       <use xlink:href="#DejaVuSans-d7" transform="translate(175.890625 0.765625)"/>
       <use xlink:href="#DejaVuSans-31" transform="translate(279.162109 0.765625)"/>
       <use xlink:href="#DejaVuSans-30" transform="translate(342.785156 0.765625)"/>
       <use xlink:href="#DejaVuSans-30" transform="translate(407.365234 39.046875) scale(0.7)"/>
      </g>
     </g>
    </g>
    <g id="xtick_5">
     <g id="line2d_5">
      <g>
       <use xlink:href="#m46afce09cc" x="552.884576" y="512.64" style="stroke: #000000; stroke-width: 0.6"/>
      </g>
     </g>
     <g id="text_5">
      <!-- $\mathdefault{2\times10^{0}}$ -->
      <g transform="translate(534.784576 525.638438) scale(0.1 -0.1)">
       <use xlink:href="#DejaVuSans-32" transform="translate(0 0.765625)"/>
       <use xlink:href="#DejaVuSans-d7" transform="translate(83.105469 0.765625)"/>
       <use xlink:href="#DejaVuSans-31" transform="translate(186.376953 0.765625)"/>
       <use xlink:href="#DejaVuSans-30" transform="translate(250 0.765625)"/>
       <use xlink:href="#DejaVuSans-30" transform="translate(314.580078 39.046875) scale(0.7)"/>
      </g>
     </g>
    </g>
    <g id="xtick_6">
     <g id="line2d_6">
      <g>
       <use xlink:href="#m46afce09cc" x="622.636364" y="512.64" style="stroke: #000000; stroke-width: 0.6"/>
      </g>
     </g>
     <g id="text_6">
      <!-- $\mathdefault{2.2\times10^{0}}$ -->
      <g transform="translate(600.036364 525.638438) scale(0.1 -0.1)">
       <use xlink:href="#DejaVuSans-32" transform="translate(0 0.765625)"/>
       <use xlink:href="#DejaVuSans-2e" transform="translate(63.623047 0.765625)"/>
       <use xlink:href="#DejaVuSans-32" transform="translate(89.910156 0.765625)"/>
       <use xlink:href="#DejaVuSans-d7" transform="translate(173.015625 0.765625)"/>
       <use xlink:href="#DejaVuSans-31" transform="translate(276.287109 0.765625)"/>
       <use xlink:href="#DejaVuSans-30" transform="translate(339.910156 0.765625)"/>
       <use xlink:href="#DejaVuSans-30" transform="translate(404.490234 39.046875) scale(0.7)"/>
      </g>
     </g>
    </g>
    <g id="text_7">
     <!-- Publication Count -->
     <g transform="translate(325.123438 539.316563) scale(0.1 -0.1)">
      <defs>
       <path id="DejaVuSans-50" d="M 1259 4147 
L 1259 2394 
L 2053 2394 
Q 2494 2394 2734 2622 
Q 2975 2850 2975 3272 
Q 2975 3691 2734 3919 
Q 2494 4147 2053 4147 
L 1259 4147 
z
M 628 4666 
L 2053 4666 
Q 2838 4666 3239 4311 
Q 3641 3956 3641 3272 
Q 3641 2581 3239 2228 
Q 2838 1875 2053 1875 
L 1259 1875 
L 1259 0 
L 628 0 
L 628 4666 
z
" transform="scale(0.015625)"/>
       <path id="DejaVuSans-75" d="M 544 1381 
L 544 3500 
L 1119 3500 
L 1119 1403 
Q 1119 906 1312 657 
Q 1506 409 1894 409 
Q 2359 409 2629 706 
Q 2900 1003 2900 1516 
L 2900 3500 
L 3475 3500 
L 3475 0 
L 2900 0 
L 2900 538 
Q 2691 219 2414 64 
Q 2138 -91 1772 -91 
Q 1169 -91 856 284 
Q 544 659 544 1381 
z
M 1991 3584 
L 1991 3584 
z
" transform="scale(0.015625)"/>
       <path id="DejaVuSans-62" d="M 3116 1747 
Q 3116 2381 2855 2742 
Q 2594 3103 2138 3103 
Q 1681 3103 1420 2742 
Q 1159 2381 1159 1747 
Q 1159 1113 1420 752 
Q 1681 391 2138 391 
Q 2594 391 2855 752 
Q 3116 1113 3116 1747 
z
M 1159 2969 
Q 1341 3281 1617 3432 
Q 1894 3584 2278 3584 
Q 2916 3584 3314 3078 
Q 3713 2572 3713 1747 
Q 3713 922 3314 415 
Q 2916 -91 2278 -91 
Q 1894 -91 1617 61 
Q 1341 213 1159 525 
L 1159 0 
L 581 0 
L 581 4863 
L 1159 4863 
L 1159 2969 
z
" transform="scale(0.015625)"/>
       <path id="DejaVuSans-6c" d="M 603 4863 
L 1178 4863 
L 1178 0 
L 603 0 
L 603 4863 
z
" transform="scale(0.015625)"/>
       <path id="DejaVuSans-69" d="M 603 3500 
L 1178 3500 
L 1178 0 
L 603 0 
L 603 3500 
z
M 603 4863 
L 1178 4863 
L 1178 4134 
L 603 4134 
L 603 4863 
z
" transform="scale(0.015625)"/>
       <path id="DejaVuSans-63" d="M 3122 3366 
L 3122 2828 
Q 2878 2963 2633 3030 
Q 2388 3097 2138 3097 
Q 1578 3097 1268 2742 
Q 959 2388 959 1747 
Q 959 1106 1268 751 
Q 1578 397 2138 397 
Q 2388 397 2633 464 
Q 2878 531 3122 666 
L 3122 134 
Q 2881 22 2623 -34 
Q 2366 -91 2075 -91 
Q 1284 -91 818 406 
Q 353 903 353 1747 
Q 353 2603 823 3093 
Q 1294 3584 2113 3584 
Q 2378 3584 2631 3529 
Q 2884 3475 3122 3366 
z
" transform="scale(0.015625)"/>
       <path id="DejaVuSans-61" d="M 2194 1759 
Q 1497 1759 1228 1600 
Q 959 1441 959 1056 
Q 959 750 1161 570 
Q 1363 391 1709 391 
Q 2188 391 2477 730 
Q 2766 1069 2766 1631 
L 2766 1759 
L 2194 1759 
z
M 3341 1997 
L 3341 0 
L 2766 0 
L 2766 531 
Q 2569 213 2275 61 
Q 1981 -91 1556 -91 
Q 1019 -91 701 211 
Q 384 513 384 1019 
Q 384 1609 779 1909 
Q 1175 2209 1959 2209 
L 2766 2209 
L 2766 2266 
Q 2766 2663 2505 2880 
Q 2244 3097 1772 3097 
Q 1472 3097 1187 3025 
Q 903 2953 641 2809 
L 641 3341 
Q 956 3463 1253 3523 
Q 1550 3584 1831 3584 
Q 2591 3584 2966 3190 
Q 3341 2797 3341 1997 
z
" transform="scale(0.015625)"/>
       <path id="DejaVuSans-74" d="M 1172 4494 
L 1172 3500 
L 2356 3500 
L 2356 3053 
L 1172 3053 
L 1172 1153 
Q 1172 725 1289 603 
Q 1406 481 1766 481 
L 2356 481 
L 2356 0 
L 1766 0 
Q 1100 0 847 248 
Q 594 497 594 1153 
L 594 3053 
L 172 3053 
L 172 3500 
L 594 3500 
L 594 4494 
L 1172 4494 
z
" transform="scale(0.015625)"/>
       <path id="DejaVuSans-6f" d="M 1959 3097 
Q 1497 3097 1228 2736 
Q 959 2375 959 1747 
Q 959 1119 1226 758 
Q 1494 397 1959 397 
Q 2419 397 2687 759 
Q 2956 1122 2956 1747 
Q 2956 2369 2687 2733 
Q 2419 3097 1959 3097 
z
M 1959 3584 
Q 2709 3584 3137 3096 
Q 3566 2609 3566 1747 
Q 3566 888 3137 398 
Q 2709 -91 1959 -91 
Q 1206 -91 779 398 
Q 353 888 353 1747 
Q 353 2609 779 3096 
Q 1206 3584 1959 3584 
z
" transform="scale(0.015625)"/>
       <path id="DejaVuSans-6e" d="M 3513 2113 
L 3513 0 
L 2938 0 
L 2938 2094 
Q 2938 2591 2744 2837 
Q 2550 3084 2163 3084 
Q 1697 3084 1428 2787 
Q 1159 2491 1159 1978 
L 1159 0 
L 581 0 
L 581 3500 
L 1159 3500 
L 1159 2956 
Q 1366 3272 1645 3428 
Q 1925 3584 2291 3584 
Q 2894 3584 3203 3211 
Q 3513 2838 3513 2113 
z
" transform="scale(0.015625)"/>
       <path id="DejaVuSans-20" transform="scale(0.015625)"/>
       <path id="DejaVuSans-43" d="M 4122 4306 
L 4122 3641 
Q 3803 3938 3442 4084 
Q 3081 4231 2675 4231 
Q 1875 4231 1450 3742 
Q 1025 3253 1025 2328 
Q 1025 1406 1450 917 
Q 1875 428 2675 428 
Q 3081 428 3442 575 
Q 3803 722 4122 1019 
L 4122 359 
Q 3791 134 3420 21 
Q 3050 -91 2638 -91 
Q 1578 -91 968 557 
Q 359 1206 359 2328 
Q 359 3453 968 4101 
Q 1578 4750 2638 4750 
Q 3056 4750 3426 4639 
Q 3797 4528 4122 4306 
z
" transform="scale(0.015625)"/>
      </defs>
      <use xlink:href="#DejaVuSans-50"/>
      <use xlink:href="#DejaVuSans-75" x="58.552734"/>
      <use xlink:href="#DejaVuSans-62" x="121.931641"/>
      <use xlink:href="#DejaVuSans-6c" x="185.408203"/>
      <use xlink:href="#DejaVuSans-69" x="213.191406"/>
      <use xlink:href="#DejaVuSans-63" x="240.974609"/>
      <use xlink:href="#DejaVuSans-61" x="295.955078"/>
      <use xlink:href="#DejaVuSans-74" x="357.234375"/>
      <use xlink:href="#DejaVuSans-69" x="396.443359"/>
      <use xlink:href="#DejaVuSans-6f" x="424.226562"/>
      <use xlink:href="#DejaVuSans-6e" x="485.408203"/>
      <use xlink:href="#DejaVuSans-20" x="548.787109"/>
      <use xlink:href="#DejaVuSans-43" x="580.574219"/>
      <use xlink:href="#DejaVuSans-6f" x="650.398438"/>
      <use xlink:href="#DejaVuSans-75" x="711.580078"/>
      <use xlink:href="#DejaVuSans-6e" x="774.958984"/>
      <use xlink:href="#DejaVuSans-74" x="838.337891"/>
     </g>
    </g>
   </g>
   <g id="matplotlib.axis_2">
    <g id="ytick_1">
     <g id="line2d_7">
      <defs>
       <path id="m757d3550bc" d="M 0 0 
L -3.5 0 
" style="stroke: #000000; stroke-width: 0.8"/>
      </defs>
      <g>
       <use xlink:href="#m757d3550bc" x="90" y="492.48" style="stroke: #000000; stroke-width: 0.8"/>
      </g>
     </g>
     <g id="text_8">
      <!-- $\mathdefault{10^{0}}$ -->
      <g transform="translate(65.4 496.279219) scale(0.1 -0.1)">
       <use xlink:href="#DejaVuSans-31" transform="translate(0 0.765625)"/>
       <use xlink:href="#DejaVuSans-30" transform="translate(63.623047 0.765625)"/>
       <use xlink:href="#DejaVuSans-30" transform="translate(128.203125 39.046875) scale(0.7)"/>
      </g>
     </g>
    </g>
    <g id="ytick_2">
     <g id="line2d_8">
      <defs>
       <path id="m7bf0609e35" d="M 0 0 
L -2 0 
" style="stroke: #000000; stroke-width: 0.6"/>
      </defs>
      <g>
       <use xlink:href="#m7bf0609e35" x="90" y="290.88" style="stroke: #000000; stroke-width: 0.6"/>
      </g>
     </g>
     <g id="text_9">
      <!-- $\mathdefault{2\times10^{0}}$ -->
      <g transform="translate(48.4 294.679219) scale(0.1 -0.1)">
       <use xlink:href="#DejaVuSans-32" transform="translate(0 0.765625)"/>
       <use xlink:href="#DejaVuSans-d7" transform="translate(83.105469 0.765625)"/>
       <use xlink:href="#DejaVuSans-31" transform="translate(186.376953 0.765625)"/>
       <use xlink:href="#DejaVuSans-30" transform="translate(250 0.765625)"/>
       <use xlink:href="#DejaVuSans-30" transform="translate(314.580078 39.046875) scale(0.7)"/>
      </g>
     </g>
    </g>
    <g id="ytick_3">
     <g id="line2d_9">
      <g>
       <use xlink:href="#m7bf0609e35" x="90" y="172.95156" style="stroke: #000000; stroke-width: 0.6"/>
      </g>
     </g>
     <g id="text_10">
      <!-- $\mathdefault{3\times10^{0}}$ -->
      <g transform="translate(48.4 176.750779) scale(0.1 -0.1)">
       <defs>
        <path id="DejaVuSans-33" d="M 2597 2516 
Q 3050 2419 3304 2112 
Q 3559 1806 3559 1356 
Q 3559 666 3084 287 
Q 2609 -91 1734 -91 
Q 1441 -91 1130 -33 
Q 819 25 488 141 
L 488 750 
Q 750 597 1062 519 
Q 1375 441 1716 441 
Q 2309 441 2620 675 
Q 2931 909 2931 1356 
Q 2931 1769 2642 2001 
Q 2353 2234 1838 2234 
L 1294 2234 
L 1294 2753 
L 1863 2753 
Q 2328 2753 2575 2939 
Q 2822 3125 2822 3475 
Q 2822 3834 2567 4026 
Q 2313 4219 1838 4219 
Q 1578 4219 1281 4162 
Q 984 4106 628 3988 
L 628 4550 
Q 988 4650 1302 4700 
Q 1616 4750 1894 4750 
Q 2613 4750 3031 4423 
Q 3450 4097 3450 3541 
Q 3450 3153 3228 2886 
Q 3006 2619 2597 2516 
z
" transform="scale(0.015625)"/>
       </defs>
       <use xlink:href="#DejaVuSans-33" transform="translate(0 0.765625)"/>
       <use xlink:href="#DejaVuSans-d7" transform="translate(83.105469 0.765625)"/>
       <use xlink:href="#DejaVuSans-31" transform="translate(186.376953 0.765625)"/>
       <use xlink:href="#DejaVuSans-30" transform="translate(250 0.765625)"/>
       <use xlink:href="#DejaVuSans-30" transform="translate(314.580078 39.046875) scale(0.7)"/>
      </g>
     </g>
    </g>
    <g id="ytick_4">
     <g id="line2d_10">
      <g>
       <use xlink:href="#m7bf0609e35" x="90" y="89.28" style="stroke: #000000; stroke-width: 0.6"/>
      </g>
     </g>
     <g id="text_11">
      <!-- $\mathdefault{4\times10^{0}}$ -->
      <g transform="translate(48.4 93.079219) scale(0.1 -0.1)">
       <use xlink:href="#DejaVuSans-34" transform="translate(0 0.765625)"/>
       <use xlink:href="#DejaVuSans-d7" transform="translate(83.105469 0.765625)"/>
       <use xlink:href="#DejaVuSans-31" transform="translate(186.376953 0.765625)"/>
       <use xlink:href="#DejaVuSans-30" transform="translate(250 0.765625)"/>
       <use xlink:href="#DejaVuSans-30" transform="translate(314.580078 39.046875) scale(0.7)"/>
      </g>
     </g>
    </g>
    <g id="text_12">
     <!-- Faculty Count -->
     <g transform="translate(42.320312 325.027656) rotate(-90) scale(0.1 -0.1)">
      <defs>
       <path id="DejaVuSans-46" d="M 628 4666 
L 3309 4666 
L 3309 4134 
L 1259 4134 
L 1259 2759 
L 3109 2759 
L 3109 2228 
L 1259 2228 
L 1259 0 
L 628 0 
L 628 4666 
z
" transform="scale(0.015625)"/>
       <path id="DejaVuSans-79" d="M 2059 -325 
Q 1816 -950 1584 -1140 
Q 1353 -1331 966 -1331 
L 506 -1331 
L 506 -850 
L 844 -850 
Q 1081 -850 1212 -737 
Q 1344 -625 1503 -206 
L 1606 56 
L 191 3500 
L 800 3500 
L 1894 763 
L 2988 3500 
L 3597 3500 
L 2059 -325 
z
" transform="scale(0.015625)"/>
      </defs>
      <use xlink:href="#DejaVuSans-46"/>
      <use xlink:href="#DejaVuSans-61" x="48.394531"/>
      <use xlink:href="#DejaVuSans-63" x="109.673828"/>
      <use xlink:href="#DejaVuSans-75" x="164.654297"/>
      <use xlink:href="#DejaVuSans-6c" x="228.033203"/>
      <use xlink:href="#DejaVuSans-74" x="255.816406"/>
      <use xlink:href="#DejaVuSans-79" x="295.025391"/>
      <use xlink:href="#DejaVuSans-20" x="354.205078"/>
      <use xlink:href="#DejaVuSans-43" x="385.992188"/>
      <use xlink:href="#DejaVuSans-6f" x="455.816406"/>
      <use xlink:href="#DejaVuSans-75" x="516.998047"/>
      <use xlink:href="#DejaVuSans-6e" x="580.376953"/>
      <use xlink:href="#DejaVuSans-74" x="643.755859"/>
     </g>
    </g>
   </g>
   <g id="patch_3">
    <path d="M 90 512.64 
L 90 69.12 
" style="fill: none; stroke: #000000; stroke-width: 0.8; stroke-linejoin: miter; stroke-linecap: square"/>
   </g>
   <g id="patch_4">
    <path d="M 648 512.64 
L 648 69.12 
" style="fill: none; stroke: #000000; stroke-width: 0.8; stroke-linejoin: miter; stroke-linecap: square"/>
   </g>
   <g id="patch_5">
    <path d="M 90 512.64 
L 648 512.64 
" style="fill: none; stroke: #000000; stroke-width: 0.8; stroke-linejoin: miter; stroke-linecap: square"/>
   </g>
   <g id="patch_6">
    <path d="M 90 69.12 
L 648 69.12 
" style="fill: none; stroke: #000000; stroke-width: 0.8; stroke-linejoin: miter; stroke-linecap: square"/>
   </g>
   <g id="text_13">
    <!-- Faculty Count and Publication Count in field arch in region AUS -->
    <g transform="translate(180.554063 63.12) scale(0.12 -0.12)">
     <defs>
      <path id="DejaVuSans-64" d="M 2906 2969 
L 2906 4863 
L 3481 4863 
L 3481 0 
L 2906 0 
L 2906 525 
Q 2725 213 2448 61 
Q 2172 -91 1784 -91 
Q 1150 -91 751 415 
Q 353 922 353 1747 
Q 353 2572 751 3078 
Q 1150 3584 1784 3584 
Q 2172 3584 2448 3432 
Q 2725 3281 2906 2969 
z
M 947 1747 
Q 947 1113 1208 752 
Q 1469 391 1925 391 
Q 2381 391 2643 752 
Q 2906 1113 2906 1747 
Q 2906 2381 2643 2742 
Q 2381 3103 1925 3103 
Q 1469 3103 1208 2742 
Q 947 2381 947 1747 
z
" transform="scale(0.015625)"/>
      <path id="DejaVuSans-66" d="M 2375 4863 
L 2375 4384 
L 1825 4384 
Q 1516 4384 1395 4259 
Q 1275 4134 1275 3809 
L 1275 3500 
L 2222 3500 
L 2222 3053 
L 1275 3053 
L 1275 0 
L 697 0 
L 697 3053 
L 147 3053 
L 147 3500 
L 697 3500 
L 697 3744 
Q 697 4328 969 4595 
Q 1241 4863 1831 4863 
L 2375 4863 
z
" transform="scale(0.015625)"/>
      <path id="DejaVuSans-65" d="M 3597 1894 
L 3597 1613 
L 953 1613 
Q 991 1019 1311 708 
Q 1631 397 2203 397 
Q 2534 397 2845 478 
Q 3156 559 3463 722 
L 3463 178 
Q 3153 47 2828 -22 
Q 2503 -91 2169 -91 
Q 1331 -91 842 396 
Q 353 884 353 1716 
Q 353 2575 817 3079 
Q 1281 3584 2069 3584 
Q 2775 3584 3186 3129 
Q 3597 2675 3597 1894 
z
M 3022 2063 
Q 3016 2534 2758 2815 
Q 2500 3097 2075 3097 
Q 1594 3097 1305 2825 
Q 1016 2553 972 2059 
L 3022 2063 
z
" transform="scale(0.015625)"/>
      <path id="DejaVuSans-72" d="M 2631 2963 
Q 2534 3019 2420 3045 
Q 2306 3072 2169 3072 
Q 1681 3072 1420 2755 
Q 1159 2438 1159 1844 
L 1159 0 
L 581 0 
L 581 3500 
L 1159 3500 
L 1159 2956 
Q 1341 3275 1631 3429 
Q 1922 3584 2338 3584 
Q 2397 3584 2469 3576 
Q 2541 3569 2628 3553 
L 2631 2963 
z
" transform="scale(0.015625)"/>
      <path id="DejaVuSans-68" d="M 3513 2113 
L 3513 0 
L 2938 0 
L 2938 2094 
Q 2938 2591 2744 2837 
Q 2550 3084 2163 3084 
Q 1697 3084 1428 2787 
Q 1159 2491 1159 1978 
L 1159 0 
L 581 0 
L 581 4863 
L 1159 4863 
L 1159 2956 
Q 1366 3272 1645 3428 
Q 1925 3584 2291 3584 
Q 2894 3584 3203 3211 
Q 3513 2838 3513 2113 
z
" transform="scale(0.015625)"/>
      <path id="DejaVuSans-67" d="M 2906 1791 
Q 2906 2416 2648 2759 
Q 2391 3103 1925 3103 
Q 1463 3103 1205 2759 
Q 947 2416 947 1791 
Q 947 1169 1205 825 
Q 1463 481 1925 481 
Q 2391 481 2648 825 
Q 2906 1169 2906 1791 
z
M 3481 434 
Q 3481 -459 3084 -895 
Q 2688 -1331 1869 -1331 
Q 1566 -1331 1297 -1286 
Q 1028 -1241 775 -1147 
L 775 -588 
Q 1028 -725 1275 -790 
Q 1522 -856 1778 -856 
Q 2344 -856 2625 -561 
Q 2906 -266 2906 331 
L 2906 616 
Q 2728 306 2450 153 
Q 2172 0 1784 0 
Q 1141 0 747 490 
Q 353 981 353 1791 
Q 353 2603 747 3093 
Q 1141 3584 1784 3584 
Q 2172 3584 2450 3431 
Q 2728 3278 2906 2969 
L 2906 3500 
L 3481 3500 
L 3481 434 
z
" transform="scale(0.015625)"/>
      <path id="DejaVuSans-41" d="M 2188 4044 
L 1331 1722 
L 3047 1722 
L 2188 4044 
z
M 1831 4666 
L 2547 4666 
L 4325 0 
L 3669 0 
L 3244 1197 
L 1141 1197 
L 716 0 
L 50 0 
L 1831 4666 
z
" transform="scale(0.015625)"/>
      <path id="DejaVuSans-55" d="M 556 4666 
L 1191 4666 
L 1191 1831 
Q 1191 1081 1462 751 
Q 1734 422 2344 422 
Q 2950 422 3222 751 
Q 3494 1081 3494 1831 
L 3494 4666 
L 4128 4666 
L 4128 1753 
Q 4128 841 3676 375 
Q 3225 -91 2344 -91 
Q 1459 -91 1007 375 
Q 556 841 556 1753 
L 556 4666 
z
" transform="scale(0.015625)"/>
      <path id="DejaVuSans-53" d="M 3425 4513 
L 3425 3897 
Q 3066 4069 2747 4153 
Q 2428 4238 2131 4238 
Q 1616 4238 1336 4038 
Q 1056 3838 1056 3469 
Q 1056 3159 1242 3001 
Q 1428 2844 1947 2747 
L 2328 2669 
Q 3034 2534 3370 2195 
Q 3706 1856 3706 1288 
Q 3706 609 3251 259 
Q 2797 -91 1919 -91 
Q 1588 -91 1214 -16 
Q 841 59 441 206 
L 441 856 
Q 825 641 1194 531 
Q 1563 422 1919 422 
Q 2459 422 2753 634 
Q 3047 847 3047 1241 
Q 3047 1584 2836 1778 
Q 2625 1972 2144 2069 
L 1759 2144 
Q 1053 2284 737 2584 
Q 422 2884 422 3419 
Q 422 4038 858 4394 
Q 1294 4750 2059 4750 
Q 2388 4750 2728 4690 
Q 3069 4631 3425 4513 
z
" transform="scale(0.015625)"/>
     </defs>
     <use xlink:href="#DejaVuSans-46"/>
     <use xlink:href="#DejaVuSans-61" x="48.394531"/>
     <use xlink:href="#DejaVuSans-63" x="109.673828"/>
     <use xlink:href="#DejaVuSans-75" x="164.654297"/>
     <use xlink:href="#DejaVuSans-6c" x="228.033203"/>
     <use xlink:href="#DejaVuSans-74" x="255.816406"/>
     <use xlink:href="#DejaVuSans-79" x="295.025391"/>
     <use xlink:href="#DejaVuSans-20" x="354.205078"/>
     <use xlink:href="#DejaVuSans-43" x="385.992188"/>
     <use xlink:href="#DejaVuSans-6f" x="455.816406"/>
     <use xlink:href="#DejaVuSans-75" x="516.998047"/>
     <use xlink:href="#DejaVuSans-6e" x="580.376953"/>
     <use xlink:href="#DejaVuSans-74" x="643.755859"/>
     <use xlink:href="#DejaVuSans-20" x="682.964844"/>
     <use xlink:href="#DejaVuSans-61" x="714.751953"/>
     <use xlink:href="#DejaVuSans-6e" x="776.03125"/>
     <use xlink:href="#DejaVuSans-64" x="839.410156"/>
     <use xlink:href="#DejaVuSans-20" x="902.886719"/>
     <use xlink:href="#DejaVuSans-50" x="934.673828"/>
     <use xlink:href="#DejaVuSans-75" x="993.226562"/>
     <use xlink:href="#DejaVuSans-62" x="1056.605469"/>
     <use xlink:href="#DejaVuSans-6c" x="1120.082031"/>
     <use xlink:href="#DejaVuSans-69" x="1147.865234"/>
     <use xlink:href="#DejaVuSans-63" x="1175.648438"/>
     <use xlink:href="#DejaVuSans-61" x="1230.628906"/>
     <use xlink:href="#DejaVuSans-74" x="1291.908203"/>
     <use xlink:href="#DejaVuSans-69" x="1331.117188"/>
     <use xlink:href="#DejaVuSans-6f" x="1358.900391"/>
     <use xlink:href="#DejaVuSans-6e" x="1420.082031"/>
     <use xlink:href="#DejaVuSans-20" x="1483.460938"/>
     <use xlink:href="#DejaVuSans-43" x="1515.248047"/>
     <use xlink:href="#DejaVuSans-6f" x="1585.072266"/>
     <use xlink:href="#DejaVuSans-75" x="1646.253906"/>
     <use xlink:href="#DejaVuSans-6e" x="1709.632812"/>
     <use xlink:href="#DejaVuSans-74" x="1773.011719"/>
     <use xlink:href="#DejaVuSans-20" x="1812.220703"/>
     <use xlink:href="#DejaVuSans-69" x="1844.007812"/>
     <use xlink:href="#DejaVuSans-6e" x="1871.791016"/>
     <use xlink:href="#DejaVuSans-20" x="1935.169922"/>
     <use xlink:href="#DejaVuSans-66" x="1966.957031"/>
     <use xlink:href="#DejaVuSans-69" x="2002.162109"/>
     <use xlink:href="#DejaVuSans-65" x="2029.945312"/>
     <use xlink:href="#DejaVuSans-6c" x="2091.46875"/>
     <use xlink:href="#DejaVuSans-64" x="2119.251953"/>
     <use xlink:href="#DejaVuSans-20" x="2182.728516"/>
     <use xlink:href="#DejaVuSans-61" x="2214.515625"/>
     <use xlink:href="#DejaVuSans-72" x="2275.794922"/>
     <use xlink:href="#DejaVuSans-63" x="2314.658203"/>
     <use xlink:href="#DejaVuSans-68" x="2369.638672"/>
     <use xlink:href="#DejaVuSans-20" x="2433.017578"/>
     <use xlink:href="#DejaVuSans-69" x="2464.804688"/>
     <use xlink:href="#DejaVuSans-6e" x="2492.587891"/>
     <use xlink:href="#DejaVuSans-20" x="2555.966797"/>
     <use xlink:href="#DejaVuSans-72" x="2587.753906"/>
     <use xlink:href="#DejaVuSans-65" x="2626.617188"/>
     <use xlink:href="#DejaVuSans-67" x="2688.140625"/>
     <use xlink:href="#DejaVuSans-69" x="2751.617188"/>
     <use xlink:href="#DejaVuSans-6f" x="2779.400391"/>
     <use xlink:href="#DejaVuSans-6e" x="2840.582031"/>
     <use xlink:href="#DejaVuSans-20" x="2903.960938"/>
     <use xlink:href="#DejaVuSans-41" x="2935.748047"/>
     <use xlink:href="#DejaVuSans-55" x="3004.15625"/>
     <use xlink:href="#DejaVuSans-53" x="3077.349609"/>
    </g>
   </g>
   <g id="legend_1">
    <g id="patch_7">
     <path d="M 677.9 130.8325 
L 1039.789062 130.8325 
Q 1041.789062 130.8325 1041.789062 128.8325 
L 1041.789062 71.12 
Q 1041.789062 69.12 1039.789062 69.12 
L 677.9 69.12 
Q 675.9 69.12 675.9 71.12 
L 675.9 128.8325 
Q 675.9 130.8325 677.9 130.8325 
z
" style="fill: #ffffff; opacity: 0.8; stroke: #cccccc; stroke-linejoin: miter"/>
    </g>
    <g id="PathCollection_9">
     <defs>
      <path id="mdca8800e7d" d="M 0 3 
C 0.795609 3 1.55874 2.683901 2.12132 2.12132 
C 2.683901 1.55874 3 0.795609 3 0 
C 3 -0.795609 2.683901 -1.55874 2.12132 -2.12132 
C 1.55874 -2.683901 0.795609 -3 0 -3 
C -0.795609 -3 -1.55874 -2.683901 -2.12132 -2.12132 
C -2.683901 -1.55874 -3 -0.795609 -3 0 
C -3 0.795609 -2.683901 1.55874 -2.12132 2.12132 
C -1.55874 2.683901 -0.795609 3 0 3 
z
" style="stroke: #66c2a5"/>
     </defs>
     <g>
      <use xlink:href="#mdca8800e7d" x="689.9" y="78.093437" style="fill: #66c2a5; stroke: #66c2a5"/>
     </g>
    </g>
    <g id="text_14">
     <!-- UNSW -->
     <g transform="translate(707.9 80.718437) scale(0.1 -0.1)">
      <defs>
       <path id="DejaVuSans-4e" d="M 628 4666 
L 1478 4666 
L 3547 763 
L 3547 4666 
L 4159 4666 
L 4159 0 
L 3309 0 
L 1241 3903 
L 1241 0 
L 628 0 
L 628 4666 
z
" transform="scale(0.015625)"/>
       <path id="DejaVuSans-57" d="M 213 4666 
L 850 4666 
L 1831 722 
L 2809 4666 
L 3519 4666 
L 4500 722 
L 5478 4666 
L 6119 4666 
L 4947 0 
L 4153 0 
L 3169 4050 
L 2175 0 
L 1381 0 
L 213 4666 
z
" transform="scale(0.015625)"/>
      </defs>
      <use xlink:href="#DejaVuSans-55"/>
      <use xlink:href="#DejaVuSans-4e" x="73.193359"/>
      <use xlink:href="#DejaVuSans-53" x="147.998047"/>
      <use xlink:href="#DejaVuSans-57" x="211.474609"/>
     </g>
    </g>
    <g id="PathCollection_10">
     <defs>
      <path id="mc3b3cf5e14" d="M 0 3 
C 0.795609 3 1.55874 2.683901 2.12132 2.12132 
C 2.683901 1.55874 3 0.795609 3 0 
C 3 -0.795609 2.683901 -1.55874 2.12132 -2.12132 
C 1.55874 -2.683901 0.795609 -3 0 -3 
C -0.795609 -3 -1.55874 -2.683901 -2.12132 -2.12132 
C -2.683901 -1.55874 -3 -0.795609 -3 0 
C -3 0.795609 -2.683901 1.55874 -2.12132 2.12132 
C -1.55874 2.683901 -0.795609 3 0 3 
z
" style="stroke: #fc8d62"/>
     </defs>
     <g>
      <use xlink:href="#mc3b3cf5e14" x="689.9" y="92.771563" style="fill: #fc8d62; stroke: #fc8d62"/>
     </g>
    </g>
    <g id="text_15">
     <!-- University of Sydney -->
     <g transform="translate(707.9 95.396563) scale(0.1 -0.1)">
      <defs>
       <path id="DejaVuSans-76" d="M 191 3500 
L 800 3500 
L 1894 563 
L 2988 3500 
L 3597 3500 
L 2284 0 
L 1503 0 
L 191 3500 
z
" transform="scale(0.015625)"/>
       <path id="DejaVuSans-73" d="M 2834 3397 
L 2834 2853 
Q 2591 2978 2328 3040 
Q 2066 3103 1784 3103 
Q 1356 3103 1142 2972 
Q 928 2841 928 2578 
Q 928 2378 1081 2264 
Q 1234 2150 1697 2047 
L 1894 2003 
Q 2506 1872 2764 1633 
Q 3022 1394 3022 966 
Q 3022 478 2636 193 
Q 2250 -91 1575 -91 
Q 1294 -91 989 -36 
Q 684 19 347 128 
L 347 722 
Q 666 556 975 473 
Q 1284 391 1588 391 
Q 1994 391 2212 530 
Q 2431 669 2431 922 
Q 2431 1156 2273 1281 
Q 2116 1406 1581 1522 
L 1381 1569 
Q 847 1681 609 1914 
Q 372 2147 372 2553 
Q 372 3047 722 3315 
Q 1072 3584 1716 3584 
Q 2034 3584 2315 3537 
Q 2597 3491 2834 3397 
z
" transform="scale(0.015625)"/>
      </defs>
      <use xlink:href="#DejaVuSans-55"/>
      <use xlink:href="#DejaVuSans-6e" x="73.193359"/>
      <use xlink:href="#DejaVuSans-69" x="136.572266"/>
      <use xlink:href="#DejaVuSans-76" x="164.355469"/>
      <use xlink:href="#DejaVuSans-65" x="223.535156"/>
      <use xlink:href="#DejaVuSans-72" x="285.058594"/>
      <use xlink:href="#DejaVuSans-73" x="326.171875"/>
      <use xlink:href="#DejaVuSans-69" x="378.271484"/>
      <use xlink:href="#DejaVuSans-74" x="406.054688"/>
      <use xlink:href="#DejaVuSans-79" x="445.263672"/>
      <use xlink:href="#DejaVuSans-20" x="504.443359"/>
      <use xlink:href="#DejaVuSans-6f" x="536.230469"/>
      <use xlink:href="#DejaVuSans-66" x="597.412109"/>
      <use xlink:href="#DejaVuSans-20" x="632.617188"/>
      <use xlink:href="#DejaVuSans-53" x="664.404297"/>
      <use xlink:href="#DejaVuSans-79" x="727.880859"/>
      <use xlink:href="#DejaVuSans-64" x="787.060547"/>
      <use xlink:href="#DejaVuSans-6e" x="850.537109"/>
      <use xlink:href="#DejaVuSans-65" x="913.916016"/>
      <use xlink:href="#DejaVuSans-79" x="975.439453"/>
     </g>
    </g>
    <g id="PathCollection_11">
     <defs>
      <path id="mb4b5fbd036" d="M 0 3 
C 0.795609 3 1.55874 2.683901 2.12132 2.12132 
C 2.683901 1.55874 3 0.795609 3 0 
C 3 -0.795609 2.683901 -1.55874 2.12132 -2.12132 
C 1.55874 -2.683901 0.795609 -3 0 -3 
C -0.795609 -3 -1.55874 -2.683901 -2.12132 -2.12132 
C -2.683901 -1.55874 -3 -0.795609 -3 0 
C -3 0.795609 -2.683901 1.55874 -2.12132 2.12132 
C -1.55874 2.683901 -0.795609 3 0 3 
z
" style="stroke: #8da0cb"/>
     </defs>
     <g>
      <use xlink:href="#mb4b5fbd036" x="689.9" y="107.449687" style="fill: #8da0cb; stroke: #8da0cb"/>
     </g>
    </g>
    <g id="text_16">
     <!-- University of Technology Sydney -->
     <g transform="translate(707.9 110.074687) scale(0.1 -0.1)">
      <defs>
       <path id="DejaVuSans-54" d="M -19 4666 
L 3928 4666 
L 3928 4134 
L 2272 4134 
L 2272 0 
L 1638 0 
L 1638 4134 
L -19 4134 
L -19 4666 
z
" transform="scale(0.015625)"/>
      </defs>
      <use xlink:href="#DejaVuSans-55"/>
      <use xlink:href="#DejaVuSans-6e" x="73.193359"/>
      <use xlink:href="#DejaVuSans-69" x="136.572266"/>
      <use xlink:href="#DejaVuSans-76" x="164.355469"/>
      <use xlink:href="#DejaVuSans-65" x="223.535156"/>
      <use xlink:href="#DejaVuSans-72" x="285.058594"/>
      <use xlink:href="#DejaVuSans-73" x="326.171875"/>
      <use xlink:href="#DejaVuSans-69" x="378.271484"/>
      <use xlink:href="#DejaVuSans-74" x="406.054688"/>
      <use xlink:href="#DejaVuSans-79" x="445.263672"/>
      <use xlink:href="#DejaVuSans-20" x="504.443359"/>
      <use xlink:href="#DejaVuSans-6f" x="536.230469"/>
      <use xlink:href="#DejaVuSans-66" x="597.412109"/>
      <use xlink:href="#DejaVuSans-20" x="632.617188"/>
      <use xlink:href="#DejaVuSans-54" x="664.404297"/>
      <use xlink:href="#DejaVuSans-65" x="708.488281"/>
      <use xlink:href="#DejaVuSans-63" x="770.011719"/>
      <use xlink:href="#DejaVuSans-68" x="824.992188"/>
      <use xlink:href="#DejaVuSans-6e" x="888.371094"/>
      <use xlink:href="#DejaVuSans-6f" x="951.75"/>
      <use xlink:href="#DejaVuSans-6c" x="1012.931641"/>
      <use xlink:href="#DejaVuSans-6f" x="1040.714844"/>
      <use xlink:href="#DejaVuSans-67" x="1101.896484"/>
      <use xlink:href="#DejaVuSans-79" x="1165.373047"/>
      <use xlink:href="#DejaVuSans-20" x="1224.552734"/>
      <use xlink:href="#DejaVuSans-53" x="1256.339844"/>
      <use xlink:href="#DejaVuSans-79" x="1319.816406"/>
      <use xlink:href="#DejaVuSans-64" x="1378.996094"/>
      <use xlink:href="#DejaVuSans-6e" x="1442.472656"/>
      <use xlink:href="#DejaVuSans-65" x="1505.851562"/>
      <use xlink:href="#DejaVuSans-79" x="1567.375"/>
     </g>
    </g>
    <g id="PathCollection_12">
     <defs>
      <path id="mf184523da0" d="M 0 3 
C 0.795609 3 1.55874 2.683901 2.12132 2.12132 
C 2.683901 1.55874 3 0.795609 3 0 
C 3 -0.795609 2.683901 -1.55874 2.12132 -2.12132 
C 1.55874 -2.683901 0.795609 -3 0 -3 
C -0.795609 -3 -1.55874 -2.683901 -2.12132 -2.12132 
C -2.683901 -1.55874 -3 -0.795609 -3 0 
C -3 0.795609 -2.683901 1.55874 -2.12132 2.12132 
C -1.55874 2.683901 -0.795609 3 0 3 
z
" style="stroke: #e78ac3"/>
     </defs>
     <g>
      <use xlink:href="#mf184523da0" x="689.9" y="122.127813" style="fill: #e78ac3; stroke: #e78ac3"/>
     </g>
    </g>
    <g id="text_17">
     <!-- Australian National University -->
     <g transform="translate(707.9 124.752813) scale(0.1 -0.1)">
      <use xlink:href="#DejaVuSans-41"/>
      <use xlink:href="#DejaVuSans-75" x="68.408203"/>
      <use xlink:href="#DejaVuSans-73" x="131.787109"/>
      <use xlink:href="#DejaVuSans-74" x="183.886719"/>
      <use xlink:href="#DejaVuSans-72" x="223.095703"/>
      <use xlink:href="#DejaVuSans-61" x="264.208984"/>
      <use xlink:href="#DejaVuSans-6c" x="325.488281"/>
      <use xlink:href="#DejaVuSans-69" x="353.271484"/>
      <use xlink:href="#DejaVuSans-61" x="381.054688"/>
      <use xlink:href="#DejaVuSans-6e" x="442.333984"/>
      <use xlink:href="#DejaVuSans-20" x="505.712891"/>
      <use xlink:href="#DejaVuSans-4e" x="537.5"/>
      <use xlink:href="#DejaVuSans-61" x="612.304688"/>
      <use xlink:href="#DejaVuSans-74" x="673.583984"/>
      <use xlink:href="#DejaVuSans-69" x="712.792969"/>
      <use xlink:href="#DejaVuSans-6f" x="740.576172"/>
      <use xlink:href="#DejaVuSans-6e" x="801.757812"/>
      <use xlink:href="#DejaVuSans-61" x="865.136719"/>
      <use xlink:href="#DejaVuSans-6c" x="926.416016"/>
      <use xlink:href="#DejaVuSans-20" x="954.199219"/>
      <use xlink:href="#DejaVuSans-55" x="985.986328"/>
      <use xlink:href="#DejaVuSans-6e" x="1059.179688"/>
      <use xlink:href="#DejaVuSans-69" x="1122.558594"/>
      <use xlink:href="#DejaVuSans-76" x="1150.341797"/>
      <use xlink:href="#DejaVuSans-65" x="1209.521484"/>
      <use xlink:href="#DejaVuSans-72" x="1271.044922"/>
      <use xlink:href="#DejaVuSans-73" x="1312.158203"/>
      <use xlink:href="#DejaVuSans-69" x="1364.257812"/>
      <use xlink:href="#DejaVuSans-74" x="1392.041016"/>
      <use xlink:href="#DejaVuSans-79" x="1431.25"/>
     </g>
    </g>
    <g id="PathCollection_13">
     <defs>
      <path id="mdf6b129527" d="M 0 3 
C 0.795609 3 1.55874 2.683901 2.12132 2.12132 
C 2.683901 1.55874 3 0.795609 3 0 
C 3 -0.795609 2.683901 -1.55874 2.12132 -2.12132 
C 1.55874 -2.683901 0.795609 -3 0 -3 
C -0.795609 -3 -1.55874 -2.683901 -2.12132 -2.12132 
C -2.683901 -1.55874 -3 -0.795609 -3 0 
C -3 0.795609 -2.683901 1.55874 -2.12132 2.12132 
C -1.55874 2.683901 -0.795609 3 0 3 
z
" style="stroke: #a6d854"/>
     </defs>
     <g>
      <use xlink:href="#mdf6b129527" x="900.559375" y="78.093437" style="fill: #a6d854; stroke: #a6d854"/>
     </g>
    </g>
    <g id="text_18">
     <!-- RMIT University -->
     <g transform="translate(918.559375 80.718437) scale(0.1 -0.1)">
      <defs>
       <path id="DejaVuSans-52" d="M 2841 2188 
Q 3044 2119 3236 1894 
Q 3428 1669 3622 1275 
L 4263 0 
L 3584 0 
L 2988 1197 
Q 2756 1666 2539 1819 
Q 2322 1972 1947 1972 
L 1259 1972 
L 1259 0 
L 628 0 
L 628 4666 
L 2053 4666 
Q 2853 4666 3247 4331 
Q 3641 3997 3641 3322 
Q 3641 2881 3436 2590 
Q 3231 2300 2841 2188 
z
M 1259 4147 
L 1259 2491 
L 2053 2491 
Q 2509 2491 2742 2702 
Q 2975 2913 2975 3322 
Q 2975 3731 2742 3939 
Q 2509 4147 2053 4147 
L 1259 4147 
z
" transform="scale(0.015625)"/>
       <path id="DejaVuSans-4d" d="M 628 4666 
L 1569 4666 
L 2759 1491 
L 3956 4666 
L 4897 4666 
L 4897 0 
L 4281 0 
L 4281 4097 
L 3078 897 
L 2444 897 
L 1241 4097 
L 1241 0 
L 628 0 
L 628 4666 
z
" transform="scale(0.015625)"/>
       <path id="DejaVuSans-49" d="M 628 4666 
L 1259 4666 
L 1259 0 
L 628 0 
L 628 4666 
z
" transform="scale(0.015625)"/>
      </defs>
      <use xlink:href="#DejaVuSans-52"/>
      <use xlink:href="#DejaVuSans-4d" x="69.482422"/>
      <use xlink:href="#DejaVuSans-49" x="155.761719"/>
      <use xlink:href="#DejaVuSans-54" x="185.253906"/>
      <use xlink:href="#DejaVuSans-20" x="246.337891"/>
      <use xlink:href="#DejaVuSans-55" x="278.125"/>
      <use xlink:href="#DejaVuSans-6e" x="351.318359"/>
      <use xlink:href="#DejaVuSans-69" x="414.697266"/>
      <use xlink:href="#DejaVuSans-76" x="442.480469"/>
      <use xlink:href="#DejaVuSans-65" x="501.660156"/>
      <use xlink:href="#DejaVuSans-72" x="563.183594"/>
      <use xlink:href="#DejaVuSans-73" x="604.296875"/>
      <use xlink:href="#DejaVuSans-69" x="656.396484"/>
      <use xlink:href="#DejaVuSans-74" x="684.179688"/>
      <use xlink:href="#DejaVuSans-79" x="723.388672"/>
     </g>
    </g>
    <g id="PathCollection_14">
     <defs>
      <path id="m5ef2ab8869" d="M 0 3 
C 0.795609 3 1.55874 2.683901 2.12132 2.12132 
C 2.683901 1.55874 3 0.795609 3 0 
C 3 -0.795609 2.683901 -1.55874 2.12132 -2.12132 
C 1.55874 -2.683901 0.795609 -3 0 -3 
C -0.795609 -3 -1.55874 -2.683901 -2.12132 -2.12132 
C -2.683901 -1.55874 -3 -0.795609 -3 0 
C -3 0.795609 -2.683901 1.55874 -2.12132 2.12132 
C -1.55874 2.683901 -0.795609 3 0 3 
z
" style="stroke: #ffd92f"/>
     </defs>
     <g>
      <use xlink:href="#m5ef2ab8869" x="900.559375" y="92.771563" style="fill: #ffd92f; stroke: #ffd92f"/>
     </g>
    </g>
    <g id="text_19">
     <!-- University of Melbourne -->
     <g transform="translate(918.559375 95.396563) scale(0.1 -0.1)">
      <use xlink:href="#DejaVuSans-55"/>
      <use xlink:href="#DejaVuSans-6e" x="73.193359"/>
      <use xlink:href="#DejaVuSans-69" x="136.572266"/>
      <use xlink:href="#DejaVuSans-76" x="164.355469"/>
      <use xlink:href="#DejaVuSans-65" x="223.535156"/>
      <use xlink:href="#DejaVuSans-72" x="285.058594"/>
      <use xlink:href="#DejaVuSans-73" x="326.171875"/>
      <use xlink:href="#DejaVuSans-69" x="378.271484"/>
      <use xlink:href="#DejaVuSans-74" x="406.054688"/>
      <use xlink:href="#DejaVuSans-79" x="445.263672"/>
      <use xlink:href="#DejaVuSans-20" x="504.443359"/>
      <use xlink:href="#DejaVuSans-6f" x="536.230469"/>
      <use xlink:href="#DejaVuSans-66" x="597.412109"/>
      <use xlink:href="#DejaVuSans-20" x="632.617188"/>
      <use xlink:href="#DejaVuSans-4d" x="664.404297"/>
      <use xlink:href="#DejaVuSans-65" x="750.683594"/>
      <use xlink:href="#DejaVuSans-6c" x="812.207031"/>
      <use xlink:href="#DejaVuSans-62" x="839.990234"/>
      <use xlink:href="#DejaVuSans-6f" x="903.466797"/>
      <use xlink:href="#DejaVuSans-75" x="964.648438"/>
      <use xlink:href="#DejaVuSans-72" x="1028.027344"/>
      <use xlink:href="#DejaVuSans-6e" x="1067.390625"/>
      <use xlink:href="#DejaVuSans-65" x="1130.769531"/>
     </g>
    </g>
    <g id="PathCollection_15">
     <defs>
      <path id="m825a2bb8cc" d="M 0 3 
C 0.795609 3 1.55874 2.683901 2.12132 2.12132 
C 2.683901 1.55874 3 0.795609 3 0 
C 3 -0.795609 2.683901 -1.55874 2.12132 -2.12132 
C 1.55874 -2.683901 0.795609 -3 0 -3 
C -0.795609 -3 -1.55874 -2.683901 -2.12132 -2.12132 
C -2.683901 -1.55874 -3 -0.795609 -3 0 
C -3 0.795609 -2.683901 1.55874 -2.12132 2.12132 
C -1.55874 2.683901 -0.795609 3 0 3 
z
" style="stroke: #e5c494"/>
     </defs>
     <g>
      <use xlink:href="#m825a2bb8cc" x="900.559375" y="107.449687" style="fill: #e5c494; stroke: #e5c494"/>
     </g>
    </g>
    <g id="text_20">
     <!-- University of Otago -->
     <g transform="translate(918.559375 110.074687) scale(0.1 -0.1)">
      <defs>
       <path id="DejaVuSans-4f" d="M 2522 4238 
Q 1834 4238 1429 3725 
Q 1025 3213 1025 2328 
Q 1025 1447 1429 934 
Q 1834 422 2522 422 
Q 3209 422 3611 934 
Q 4013 1447 4013 2328 
Q 4013 3213 3611 3725 
Q 3209 4238 2522 4238 
z
M 2522 4750 
Q 3503 4750 4090 4092 
Q 4678 3434 4678 2328 
Q 4678 1225 4090 567 
Q 3503 -91 2522 -91 
Q 1538 -91 948 565 
Q 359 1222 359 2328 
Q 359 3434 948 4092 
Q 1538 4750 2522 4750 
z
" transform="scale(0.015625)"/>
      </defs>
      <use xlink:href="#DejaVuSans-55"/>
      <use xlink:href="#DejaVuSans-6e" x="73.193359"/>
      <use xlink:href="#DejaVuSans-69" x="136.572266"/>
      <use xlink:href="#DejaVuSans-76" x="164.355469"/>
      <use xlink:href="#DejaVuSans-65" x="223.535156"/>
      <use xlink:href="#DejaVuSans-72" x="285.058594"/>
      <use xlink:href="#DejaVuSans-73" x="326.171875"/>
      <use xlink:href="#DejaVuSans-69" x="378.271484"/>
      <use xlink:href="#DejaVuSans-74" x="406.054688"/>
      <use xlink:href="#DejaVuSans-79" x="445.263672"/>
      <use xlink:href="#DejaVuSans-20" x="504.443359"/>
      <use xlink:href="#DejaVuSans-6f" x="536.230469"/>
      <use xlink:href="#DejaVuSans-66" x="597.412109"/>
      <use xlink:href="#DejaVuSans-20" x="632.617188"/>
      <use xlink:href="#DejaVuSans-4f" x="664.404297"/>
      <use xlink:href="#DejaVuSans-74" x="743.115234"/>
      <use xlink:href="#DejaVuSans-61" x="782.324219"/>
      <use xlink:href="#DejaVuSans-67" x="843.603516"/>
      <use xlink:href="#DejaVuSans-6f" x="907.080078"/>
     </g>
    </g>
   </g>
  </g>
 </g>
 <defs>
  <clipPath id="pd8d6dc1573">
   <rect x="90" y="69.12" width="558" height="443.52"/>
  </clipPath>
 </defs>
</svg>
